<!--?xml version="1.0" standalone="no"?-->
              <svg id="sw-js-blob-svg" viewBox="0 0 100 100" xmlns="http://www.w3.org/2000/svg" version="1.1">
                    <defs> 
                        <linearGradient id="sw-gradient" x1="0" x2="1" y1="1" y2="0">
                            <stop id="stop1" stop-color="rgba(70, 51, 167, 1)" offset="0%"></stop>
                            <stop id="stop2" stop-color="rgba(251, 168, 31, 1)" offset="100%"></stop>
                        </linearGradient>
                    </defs>
                <path fill="rgba(70, 51, 167, 1)" d="M24.8,-34.3C30.4,-30.1,31.9,-20.5,31.5,-12.4C31,-4.4,28.7,2.1,27.3,9.6C25.9,17.2,25.5,25.9,21.1,31.7C16.7,37.5,8.4,40.5,-0.4,41.2C-9.3,41.8,-18.5,40,-23.6,34.4C-28.6,28.8,-29.5,19.3,-30.8,11C-32,2.8,-33.6,-4.3,-31.5,-10.1C-29.4,-15.8,-23.6,-20.1,-17.7,-24.1C-11.8,-28.2,-5.9,-32.1,1.9,-34.7C9.6,-37.3,19.3,-38.5,24.8,-34.3Z" width="100%" height="100%" transform="translate(50 50)" stroke-width="0" style="transition: 0.3s;"></path>
              </svg>