<svg width="93" height="90" viewBox="0 0 93 90" fill="none" xmlns="http://www.w3.org/2000/svg">
<path d="M50.4144 10.9492L73.2769 20.7742C79.8644 23.5867 79.8644 28.2367 73.2769 31.0492L50.4144 40.8742C47.8181 41.9992 43.5556 41.9992 40.9594 40.8742L18.0969 31.0492C11.5094 28.2367 11.5094 23.5867 18.0969 20.7742L40.9594 10.9492C43.5556 9.82422 47.8181 9.82422 50.4144 10.9492Z" stroke="#00C9B7" stroke-width="5" stroke-linecap="round" stroke-linejoin="round"/>
<path d="M11.625 41.25C11.625 44.4 14.0663 48.0375 17.05 49.3125L43.3612 60.6375C45.3762 61.5 47.6625 61.5 49.6388 60.6375L75.95 49.3125C78.9338 48.0375 81.375 44.4 81.375 41.25" stroke="#00C9B7" stroke-width="5" stroke-linecap="round" stroke-linejoin="round"/>
<path d="M11.625 60C11.625 63.4875 13.7563 66.6375 17.05 68.0625L43.3612 79.3875C45.3762 80.25 47.6625 80.25 49.6388 79.3875L75.95 68.0625C79.2438 66.6375 81.375 63.4875 81.375 60" stroke="#00C9B7" stroke-width="5" stroke-linecap="round" stroke-linejoin="round"/>
</svg>
