<svg id="SvgjsSvg1372" width="360" height="360" xmlns="http://www.w3.org/2000/svg" version="1.1" xmlns:xlink="http://www.w3.org/1999/xlink" xmlns:svgjs="http://svgjs.com/svgjs"><defs id="SvgjsDefs1373"></defs><g id="SvgjsG1374"><svg xmlns="http://www.w3.org/2000/svg" enable-background="new 0 0 1500 1500" viewBox="0 0 1500 1500" width="360" height="360"><path fill="#d9d9e6" d="M1110.7 917.6c-.7.2-1.3-.4-1.4-1.1v-.2V127.1c-.2-.7.4-1.3 1.1-1.4.2 0 .2 0 .4 0 .7 0 1.3.5 1.3 1.3v.2 789.2C1112 917 1111.5 917.6 1110.7 917.6zM973.6 939.9c-.7-.2-1.3-.7-1.3-1.4V149.3c0-.7.5-1.3 1.3-1.3l0 0c.7 0 1.3.5 1.4 1.3v789.2C975 939.2 974.3 939.9 973.6 939.9zM836.5 962.1c-.7 0-1.3-.5-1.4-1.3V171.6c0-.7.7-1.4 1.4-1.4.7 0 1.3.5 1.3 1.3v.2 789.2C837.8 961.5 837.3 962.1 836.5 962.1zM699.4 984.4c-.7-.2-1.3-.7-1.3-1.4V193.8c0-.7.5-1.3 1.3-1.3l0 0c.7 0 1.3.5 1.4 1.3V983C700.8 983.7 700.1 984.4 699.4 984.4zM562.4 1006.5c-.7 0-1.3-.5-1.4-1.3V216.1c0-.7.7-1.4 1.4-1.4l0 0c.7 0 1.3.5 1.3 1.3v.2 789.2C563.6 1006 563.1 1006.5 562.4 1006.5L562.4 1006.5zM425.2 1028.9c-.7-.2-1.3-.7-1.3-1.4V238.3c0-.7.5-1.3 1.3-1.3.7 0 1.3.5 1.4 1.3v789.2C426.6 1028.1 425.9 1028.9 425.2 1028.9zM288.2 1051c-.7 0-1.3-.5-1.4-1.3V260.6c0-.7.7-1.4 1.4-1.4.7.2 1.3.7 1.3 1.4v789.2C289.4 1050.5 288.9 1051 288.2 1051z" class="svgShape colord9d9e6-0 selectable"></path><path fill="#d9d9e6" d="M288.7 919.2c-.7 0-1.3-.4-1.4-1.1 0-.7.4-1.4 1.1-1.4L1110 783.2c.7-.2 1.3.4 1.4 1.1v.2c.2.7-.4 1.3-1.1 1.4L288.7 919.2 288.7 919.2zM288.7 787.7c-.7 0-1.3-.5-1.4-1.3 0-.7.4-1.3 1.1-1.4L1110 651.8c.7-.2 1.3.4 1.4 1.1.2.7-.4 1.3-1.1 1.4L288.7 787.7 288.7 787.7zM288.7 656.1c-.7-.2-1.3-.9-1.1-1.6 0-.4.4-.7.7-1.1L1110 520.1c.5-.2 1.3.2 1.4.7 0 .2 0 .4 0 .4.2.7-.4 1.4-1.1 1.6L288.7 656.1 288.7 656.1zM288.7 524.4c-.7 0-1.3-.4-1.4-1.1 0-.7.4-1.4 1.1-1.4L1110 388.5c.7-.2 1.3.4 1.4 1.1v.2c.2.7-.4 1.3-1.1 1.4L288.7 524.4 288.7 524.4zM288.7 392.9c-.7 0-1.3-.5-1.4-1.3 0-.7.4-1.3 1.1-1.4L1110 257c.7-.2 1.3.4 1.4 1.1s-.4 1.3-1.1 1.4l0 0L288.7 392.9 288.7 392.9zM288.7 261.3c-.7 0-1.3-.4-1.4-1.1 0-.7.4-1.4 1.1-1.6L1110 125.4c.5-.2 1.3.2 1.4.7 0 .2 0 .4 0 .4.2.7-.4 1.4-1.1 1.6L288.7 261.3 288.7 261.3z" class="svgShape colord9d9e6-1 selectable"></path><path d="M288.9,918.3c-0.4,0-0.9-0.2-1.1-0.5c-0.4-0.5-0.4-1.4,0.4-1.8l0,0l282.9-210.8l271-224.9c0.4-0.4,0.7-0.4,1.3-0.4		L988,528.9l244-203.6c0.5-0.5,1.4-0.7,2-0.2c0.5,0.5,0.7,1.4,0.2,2c-0.2,0.2-0.4,0.4-0.5,0.4l-244.4,204c-0.4,0.4-0.9,0.4-1.3,0.2
		l-144.9-48.8L572.7,707.3L289.6,918.1L288.9,918.3z" fill="#000000" class="svgShape color000000-2 selectable"></path><path fill="#d9d9e6" d="M288.7,1050.8c-0.7-0.2-1.3-0.9-1.1-1.6c0-0.4,0.4-0.7,0.7-1.1L1110,914.9c0.5-0.2,1.3,0.2,1.4,0.7
		c0,0.2,0,0.4,0,0.4c0.2,0.7-0.4,1.4-1.1,1.6L288.7,1050.8L288.7,1050.8z" class="svgShape colord9d9e6-3 selectable"></path><polygon fill="#d9d9e6" points="1200.2 1270.2 1075.4 1250.2 1075.4 578.7 1200.2 598.7" class="svgShape colord9d9e6-4 selectable"></polygon><path d="M1200.2,1271.6L1200.2,1271.6l-125-20c-0.7-0.2-1.3-0.7-1.3-1.4V578.7c0-0.4,0.2-0.7,0.5-1.1c0.4-0.2,0.7-0.4,1.1-0.2
		l124.9,20c0.7,0,1.1,0.5,1.1,1.3v671.5c0,0.5,0,0.9-0.4,1.1L1200.2,1271.6z M1076.6,1249.1l122.2,19.6V600l-122.2-19.6V1249.1z" fill="#000000" class="svgShape color000000-5 selectable"></path><polygon fill="#4633a7" points="1200.1 1270.2 1325.1 1250.2 1325.1 578.7 1200.1 598.7" class="svgShape color9aa0cb-6 selectable"></polygon><path d="M1200.1,1271.6l-0.7-0.4c-0.4-0.2-0.5-0.7-0.5-1.1V598.7c0-0.7,0.5-1.1,1.1-1.3l124.9-20c0.4-0.2,0.7,0,1.1,0.2
		c0.4,0.4,0.5,0.7,0.5,1.1v671.5c0,0.7-0.5,1.3-1.1,1.4l-124.9,20H1200.1z M1201.5,600v668.8l122.2-19.6V580.3L1201.5,600z" fill="#000000" class="svgShape color000000-7 selectable"></path><polygon fill="#fff" points="1200.1 558.2 1075.4 578.7 1200.1 598.7 1325.1 578.7" class="svgShape colorffffff-8 selectable"></polygon><path d="M1200.1,600.2L1200.1,600.2L1075.2,580c-0.7,0-1.3-0.5-1.3-1.3c0-0.7,0.5-1.3,1.3-1.3l124.7-20.7h0.5l124.9,20.7
		c0.7,0,1.3,0.5,1.3,1.3c0,0.7-0.5,1.3-1.3,1.3l-124.9,20.2H1200.1z M1083.6,578.7l116.5,18.8l116.6-18.8l-116.6-19.3L1083.6,578.7z
		" fill="#000000" class="svgShape color000000-9 selectable"></path><polygon fill="#d9d9e6" points="990.2 1300.6 865.1 1280.5 865.1 716.4 990.2 736.4" class="svgShape colord9d9e6-10 selectable"></polygon><path d="M990.2,1302h-0.4l-124.9-20.2c-0.5-0.2-1.1-0.5-1.1-1.3V716.4c-0.2-0.7,0.4-1.3,1.1-1.4c0.2,0,0.4,0,0.5,0l124.9,20
		c0.5,0.2,1.1,0.7,1.1,1.4v564.1c0,0.4-0.2,0.9-0.5,1.1L990.2,1302z M866.6,1279.5l122.2,19.5V737.5l-122.2-19.6V1279.5z" fill="#000000" class="svgShape color000000-11 selectable"></path><polygon fill="#00c9b7" points="990 1300.6 1114.8 1280.5 1114.8 716.4 990 736.4" class="svgShape colorf5f5fc-12 selectable"></polygon><path d="M990,1302l-0.9-0.4c-0.4-0.2-0.5-0.7-0.5-1.1V736.4c0-0.7,0.5-1.3,1.3-1.4l124.9-20c0.4,0,0.7,0,1.1,0.4
		c0.4,0.2,0.5,0.7,0.5,1.1v564.1c0,0.7-0.5,1.3-1.3,1.3l0,0L990.2,1302H990z M991.2,737.5v561.4l122.4-19.5V717.9L991.2,737.5z" fill="#000000" class="svgShape color000000-13 selectable"></path><polygon fill="#fff" points="990 695.7 865.1 716.4 990 736.4 1114.8 716.4" class="svgShape colorffffff-14 selectable"></polygon><path d="M990,737.7h-0.2l-124.9-20c-0.5-0.2-0.9-0.7-1.1-1.3c0-0.7,0.5-1.3,1.1-1.4l124.9-20.5h0.4L1115,715
		c0.7,0.4,1.1,1.1,0.9,1.8c-0.2,0.4-0.5,0.7-0.9,0.9l-124.9,20H990z M873.5,716.3L990,735l116.5-18.8L990,697.1L873.5,716.3z" fill="#000000" class="svgShape color000000-15 selectable"></path><polygon fill="#d9d9e6" points="771.3 1336.5 646.5 1316.5 646.5 853.3 771.3 873.3" class="svgShape colord9d9e6-16 selectable"></polygon><path d="M771.3,1337.7h-0.2l-125-20c-0.5-0.2-0.9-0.7-1.1-1.3V853.3c0-0.4,0.2-0.9,0.5-1.1l1.1-0.4L771.5,872
		c0.7,0,1.1,0.5,1.1,1.3v463.2c0,0.4-0.2,0.7-0.4,1.1L771.3,1337.7z M647.7,1315.2l122.2,19.6V874.3l-122.2-19.5V1315.2z" fill="#000000" class="svgShape color000000-17 selectable"></path><polygon fill="#4633a7" points="771.2 1336.5 896 1316.5 896 853.3 771.2 873.3" class="svgShape colorf5f5fc-18 selectable"></polygon><path d="M771.2,1337.7h-0.9c-0.2-0.4-0.4-0.7-0.4-1.1V873.3c0-0.7,0.4-1.3,1.1-1.3l124.9-20.2l1.1,0.4c0.4,0.2,0.5,0.7,0.5,1.1
		v463.2c-0.2,0.5-0.5,1.1-1.1,1.3L771.2,1337.7L771.2,1337.7z M772.6,874.3v460.5l122.2-19.6V854.9L772.6,874.3z" fill="#000000" class="svgShape color000000-19 selectable"></path><polygon fill="#fff" points="771.2 832.5 646.5 853.3 771.2 873.3 896 853.3" class="svgShape colorffffff-20 selectable"></polygon><path d="M771.2,874.5H771l-124.9-20c-0.5,0-1.1-0.7-1.1-1.3c0-0.7,0.5-1.3,1.1-1.4L771,831.3h0.4l125,20.5c0.5,0.2,1.1,0.7,1.1,1.4
		c0,0.5-0.5,1.3-1.1,1.3l-125,20H771.2z M654.7,853.3l116.5,18.6l116.6-18.6L771.2,834L654.7,853.3z" fill="#000000" class="svgShape color000000-21 selectable"></path><polygon fill="#d9d9e6" points="552.5 1373.3 427.7 1353.2 427.7 976.3 552.5 996.5" class="svgShape colord9d9e6-22 selectable"></polygon><path d="M552.5,1374.7h-0.2l-124.9-20c-0.7-0.2-1.3-0.7-1.3-1.4V976.3c0-0.4,0.2-0.7,0.5-0.9c0.4-0.4,0.7-0.4,1.1-0.4l124.9,20
		c0.7,0.2,1.3,0.7,1.3,1.4v376.7c0,0.4-0.2,0.9-0.5,1.1L552.5,1374.7z M428.9,1352.2l122.4,19.6V997.6L428.9,978V1352.2z" fill="#000000" class="svgShape color000000-23 selectable"></path><polygon fill="#00c9b7" points="552.3 1373.3 677.4 1353.2 677.4 976.3 552.3 996.5" class="svgShape colorf5f5fc-24 selectable"></polygon><path d="M552.3,1374.7l-0.7-0.4c-0.4-0.2-0.5-0.7-0.5-1.1V996.5c0-0.7,0.5-1.3,1.1-1.4l124.9-20c0.5,0,0.9,0,1.1,0.4
		c0.4,0.2,0.5,0.5,0.5,0.9v376.9c0,0.7-0.5,1.3-1.1,1.4l-124.9,20L552.3,1374.7z M553.8,997.6v374.2l122.2-19.6V978L553.8,997.6z" fill="#000000" class="svgShape color000000-25 selectable"></path><polygon fill="#fff" points="552.3 955.8 427.7 976.3 552.3 996.5 677.4 976.3" class="svgShape colorffffff-26 selectable"></polygon><path d="M552.3,997.8h-0.2l-124.7-20c-0.7-0.4-1.1-1.1-0.9-1.8c0.2-0.4,0.5-0.7,0.9-0.9l124.7-20.5c0.2-0.2,0.4-0.2,0.5,0l0,0
		l124.9,20.5c0.5,0.2,0.9,0.7,1.1,1.3c0,0.7-0.5,1.3-1.1,1.4l-124.9,20H552.3z M435.9,976.3l116.5,18.8L669,976.3l-116.6-19.1
		L435.9,976.3z" fill="#000000" class="svgShape color000000-27 selectable"></path><path fill="#f1f1f1" d="M753.1,482.6c0,0,18.9,8,29.1,10.7s7.9-9.5,8.8-15.4c0.9-5.9,29.1-87.2,29.1-87.2
		C803.5,426.7,753.1,482.6,753.1,482.6z" class="svgShape colorf1f1f1-28 selectable"></path><path fill="#fff" d="M483,792.2c3-3.4,7-5.9,11.3-7.3c4.6-1.6,9.1-3.8,13.2-6.4c0,0,17.1,7,19.6,14.3c2.3,7.1,2.9,14.8,1.6,22.3
		c-1.1,5.4,5.5,15.7,10.9,15c5.4-0.7-0.2-0.4,0,0c0.2,0.4,3.8,33,4.3,41.4c0.5,8.4-7,36.3-31.4,22.5c0,0-13.2-17-19.1-34.8
		c-5.9-17.9-16.8-45.4-15.4-52.9C479.1,801.5,480.7,796.6,483,792.2z" class="svgShape colorffffff-29 selectable"></path><path fill="#f8c0a5" d="M761.7,748.6c0,0-12.5,33.2-17.5,38.8c0,0,17.1-2.1,26.8,6.4c3.9,3.4,6.4,6.1,7.7,14.3s11.6,11.6,13.9,12.3
		c2.3,0.7-8.9-12-6.3-18.4c2.7-6.4,19.5-45.4,19.5-45.4L761.7,748.6z" class="svgShape colorf8c0a5-30 selectable"></path><path fill="#fff" d="M727.2,827.2c-0.7-0.7-10.2-11.6,1.3-27.9l14.5-11.3h7c0,0,16.1-1.1,22.9,7.1c6.8,8.2,4.5,11.3,5.5,14.1
		c1.1,2.9,14.1,11.6,20,16.3c5.9,4.6,27,13.6,29.5,23.9c2.5,10.4-21.1,17.7-36.3,15.5c-15.2-2.1-28.4-17.5-32.7-21.1
		S732.6,834.5,727.2,827.2z" class="svgShape colorffffff-31 selectable"></path><path fill="#6d4e4d" d="M768.3,275.4c0,0-12.9-20.2-15.2-28.4c-2.3-8.2,1.3-34.5,10.7-44.3c9.5-9.8,26.1-13.9,37.9-13.6s23,3.9,33.4,8
		c10.4,4.1,23.4,8.6,22.1,13.8c-1.3,5.2-7.1,6.8-7.1,6.8s0,8.6-5.2,8.6s-8.8-0.4-8.8-0.4s-36.3,55.9-43.6,55.9
		S768.3,275.4,768.3,275.4z" class="svgShape color6d4e4d-32 selectable"></path><path fill="#f8c0a5" d="M765.8 288.8c1.1-4.5 2-8.9 2.5-13.4 0 0 14.1 3.8 17 4.3 2.7.7 5.5-.7 6.4-3.4.5-2.3 4.8-7.7 7.9-9.6 3-2 4.6-4.5 4.1-6.8-.5-2.3-5-6.1-1.3-13.4 3.8-7.3 9.5-1.4 10-.9.5.5 3-7.5 3.4-11.4s2.3-8.6 3.9-9.1c1.6-.5 8.2-.7 11.4-2.3 3.2-1.6 4.6-1.6 5-1.4.4.2 2.1 11.8 1.3 19.5-.9 7.7-1.8 11.6.2 13.9s5 6.1 3.9 7.9c-1.1 1.8-3.2 1.8-4.3 3.8-.7 1.8-1.4 3.8-2 5.7 0 0-2.3 13.6-4.5 15.5s-9.3 6.4-23.6-3l-4.1 13.9c0 0-4.6-6.3-18.8-8.4C770.3 287.9 765.8 288.8 765.8 288.8zM592.7 446.7c.5 1.3-7.5 16.6-8.4 19.1s.5 9.5-.2 17.3-8.8 7.1-8.8 7.1c0 4.5-2.1 8.6-5.7 11.1 0 0-6.3 4.6-8.8 3.9-1.6-.7-3-2.1-3.4-3.9 0 0-4.5 2.7-7.3 1.6-2.9-1.1-2.3-5.7-2.3-5.7-2 .9-4.3 1.4-6.4 1.4-2.9-.4-5.5-5.2-5.5-5.2-8.4 1.3-8.4-5.7-7.9-10.4s8.6-20.9 11.3-23.8c2.7-2.9 15.2-12 18.4-14.5 3.2-2.5 10.5-17.9 10.5-17.9S588.4 436.5 592.7 446.7zM927.6 354.5c0 0 7.5-3.8 8.4-5.7s3.4-11.4 5.7-13.8c2.3-2.3 13.4-8 16.4-7.5s5.5 3 3.9 5.5c-1.6 2.5 2.9-4.6 7-4.8 3.2-.4 6.3 2 6.6 5.2 0 .2 0 .5 0 .7 2.1 1.3 3.8 3 4.8 5.2.9 3.2.4 3.6.4 3.6 1.4 1.8 2.3 3.9 2.5 6.1 1.1 1.6 1.6 3.6 1.3 5.5-.5 3.4-5.9 12.7-15.4 16.6-4.1 2-8.4 3.6-12.9 5l-16.3 10.9C940.1 387.1 915.9 361 927.6 354.5zM543.2 749.1c0 0-19.1 20.2-22.7 21.8-3.6 1.6-13 7.5-13 7.5s18 6.6 19.6 14.3c1.6 7.7 3 10 2.3 18.9-.7 8.9 4.3 17.9 10.2 18.4 0 0-3.2-13.9-.9-17.1 2.3-3.2 26.6-34.1 26.6-34.1S554 751.1 543.2 749.1z" class="svgShape colorf8c0a5-33 selectable"></path><path fill="#4633a7" d="M518.8,737.5c0,0,27.2,2.3,39.5,24.8c12.3,22.5,10,41.3,10,41.3l118.4-129.1l30.7-102c0,0,0-17,0.5-22.3
		c0.5-5.4,35.9,33.6,35.9,35.4c0,1.8,41.3,55.4,41.3,55.4l-45.9,107.9c0,0-4.6,11.8,8,16.4c12.7,4.6,47.3,11.3,52.7,8.2
		c2.3-1.3,15.9-27.9,28.2-60.2c16.1-41.8,28.2-92.7,27.2-91.6s-5.4-22.5-23.6-50.7c-22.5-34.8-56.6-75-56.6-75s-27.7-10.5-35.4-9.3
		c0,0-3.4,11.1-5.9,11.8c-2.5,0.7-45.4-16.6-54.1-18.4c-8.8-1.8-32.5,0-35.4,3.6c-2.9,3.6-10.7,22.5-11.3,34.8
		c0,0-28.6,107.2-30.4,110.7c-1.8,3.6-16.8,23.4-34.1,43.4C551.5,703.8,518.8,737.5,518.8,737.5z" class="svgShape color9ba6e1-34 selectable"></path><path fill="#4633a7" d="M555.6,425.5c0,0,50.4-67.7,54.3-72.7c4.3-5.2,9.3-9.5,15-13c4.3-2.1,73.6-29.5,76.8-31.4
		c3.2-2,14.3-10.5,23.8-12.7s20.5-3.4,23.4-2.3c2.9,1.1,13.9-4.5,17-4.5s28.6,2.5,32,4.5c3.4,2,5.5,5.9,8.4,8s25,5.9,30.5,11.4
		s19.6,30.9,19.6,30.9s20.4,34.8,22.7,35.9s43.9-25.7,43.9-25.7s13.8-1.3,19.8,14.3c6.1,15.5,0.4,21.8,0.4,21.8l-71.8,36.8
		c-7.5,0.9-15.2-1.1-21.3-5.5c-10.4-7.5-30-42.3-30-42.3s-1.3,20.9-25.9,51.8c-6.4,8-11.4,20.7-16.6,27
		c-15.2,18.2-25.9,23.9-27.9,28.9c-2,5,1.8,13-5.9,11.8c-7.7-1.3-40.9-12.3-43.8-14.3c-2.9-2-28-7.9-53.8-0.7
		c-25.7,7.1-39.3,8.4-38.9,6.8c0.4-1.6,3.6-13,19.8-24.1c16.3-11.1,34.5-27.5,38.4-34.1c3.9-6.6,17.1-37.7,17.1-37.7l17-41.6
		c0,0-46.3,24.3-49.5,27.3s-47.9,73.8-50.4,75.2c-2.5,1.4-8.8-14.1-14.3-18.4C580,432.4,564.3,421.9,555.6,425.5z" class="svgShape colorf9d7ad-35 selectable"></path><path fill="#d9d9e6" d="M492.2,792.4c0,0-9.8-2.5-12.7,10.2c-2.9,12.7,25.2,84.8,29.7,89.8c4.5,5,13.8,4.1,12.9-8.8
		c-0.9-12.9-8.6-62-11.4-68.6C507.7,808.4,502.2,791.5,492.2,792.4z" class="svgShape colord9d9e6-36 selectable"></path><path d="M418.9,608v-33.4l-25.9-4.3L383,548l11.8-27.3l-23.6-19.1l-24.8,16.8l-24.3-5.4l-9.3-24.3l-33.2,6.4l-9.3,27.9L246,538
		l-24.8-7.1l-23.6,28.4l11.8,22.7c-3.9,10.5-5.9,15.9-10,26.4l-25.9,14.3v33.6l25.9,4.1c4.1,8.9,6.1,13.6,10,22.5l-11.8,27.3
		l23.6,18.9l24.8-16.6l24.3,5.4l9.3,24.3l33.2-6.6l9.3-27.9l24.3-14.8l24.8,7l23.6-28.4L383,648.7c3.9-10.5,6.1-15.7,10-26.3
		L418.9,608z M296.2,672.5c-31.3,6.1-56.8-14.5-56.8-46.1s25.5-62,56.8-68.2s56.8,14.5,56.8,46.1S327.6,666.2,296.2,672.5z" fill="#000000" class="svgShape color000000-37 selectable"></path><path fill="#00c9b7" d="M433.9,608v-33.4l-25.9-4.3L398,548l11.8-27.3l-23.6-19.1l-24.8,16.8l-24.3-5.4l-9.1-24.3l-33.4,6.4l-9.3,27.9
		L261,538l-24.8-7.1l-23.6,28.4l12,22.7l-10.2,26.4l-25.9,14.3v33.6l25.9,4.1l10.2,22.5l-12,27.3l23.6,18.9l24.8-16.6l24.3,5.4
		l9.3,24.3l33.4-6.6l9.1-27.9l24.3-14.8l24.8,7l23.6-28.4L398,648.7c3.9-10.5,6.1-15.7,10-26.3L433.9,608z M311.2,672.5
		c-31.3,6.1-56.8-14.5-56.8-46.1s25.5-62,56.8-68.2s56.8,14.5,56.8,46.1S342.6,666.2,311.2,672.5z" class="svgShape colorffd6ac-38 selectable"></path><path d="M294.6,743.4c-0.5,0-1.1-0.4-1.3-0.9l-8.9-23.6l-23-5l-24.3,16.4c-0.5,0.4-1.3,0.2-1.6-0.2l-23.6-19.1
		c-0.5-0.2-0.7-0.7-0.5-1.1c0-0.2,0.2-0.2,0.2-0.4l11.4-26.8l-9.5-21.3l-25.2-4.1c-0.5-0.2-1.1-0.5-1.1-1.3v-33.6
		c0-0.5,0.4-1.1,0.7-1.3l25.4-14.1l9.6-25.4l-11.4-22.1c-0.4-0.5-0.2-1.1,0.2-1.4l23.6-28.4c0.4-0.4,0.7-0.5,1.3-0.4l24.3,6.8
		l23.4-14.3l9.1-27.3c0.2-0.5,0.5-0.9,0.9-0.9l33.4-6.6c0.7,0,1.3,0.4,1.6,0.9l8.9,23.6l22.9,5l24.5-16.3c0.5-0.4,1.1-0.4,1.6,0
		l23.6,19.1c0.4,0.4,0.5,1.1,0.4,1.6l-11.6,26.6l9.5,21.3l25.4,4.1c0.5,0.2,1.1,0.7,1.1,1.4V608c0,0.5-0.4,1.1-0.7,1.3l-25.5,14.1
		l-9.6,25.4l11.6,22.1c0.2,0.5,0.2,1.1-0.2,1.4l-23.6,28.4c-0.4,0.4-0.9,0.5-1.4,0.4l-24.3-6.8l-23.4,14.3l-8.9,27.3
		c0,0.5-0.5,0.9-1.1,0.9l-33.4,6.6H294.6z M261,711.1h0.4l24.3,5.4c0.4,0.2,0.7,0.5,0.9,0.9l8.9,23.2l31.4-6.3l8.9-27l0.5-0.9
		l24.3-14.8h1.1l23.9,6.8l22.5-27.2l-11.4-21.8c-0.2-0.4-0.2-0.7,0-1.1l10-26.4c0.2-0.4,0.4-0.5,0.7-0.7l25.2-13.9v-31.6l-24.8-3.9
		c-0.4-0.2-0.7-0.5-1.1-0.9l-10-22.3c-0.2-0.4-0.2-0.7,0-1.1l11.4-26.4l-22-17.9l-24.1,16.3H361l-24.1-5.4c-0.5-0.2-0.9-0.4-1.1-0.9
		l-8.8-23.2l-31.4,6.3l-9.1,27.2c0,0.4-0.2,0.5-0.5,0.7l-24.3,15h-1.1l-23.9-6.8l-22.5,27.2l11.4,21.8c0.2,0.4,0.2,0.9,0.2,1.3
		l-10.2,26.3c0,0.4-0.4,0.5-0.5,0.7l-25.2,13.9V655l24.7,4.1c0.5,0,0.9,0.4,1.1,0.7l10,22.5c0.2,0.4,0.2,0.7,0,1.1l-11.3,26.3
		l22,17.9l23.9-16.3L261,711.1z M300.3,674.8c-11.1,0.2-21.8-3.6-30.4-10.4c-10.9-8.9-16.8-22.5-16.8-38c0-32,25.9-63.2,57.9-69.5
		c15.7-3,30.4,0.2,41.4,9.3c11.1,9.1,16.8,22.5,16.8,38c0,32-25.9,63.2-57.7,69.5l0,0C307.8,674.5,304.1,674.8,300.3,674.8z
		 M322.3,558.5c-3.6,0-7.1,0.4-10.7,1.1c-30.7,6.1-55.7,36.1-55.7,66.8c0,14.8,5.7,27.5,15.9,35.9s24.3,11.8,39.3,8.8
		c30.7-5.9,55.6-35.9,55.6-66.8c0-14.6-5.5-27.5-15.7-35.9C342.8,561.9,332.6,558.4,322.3,558.5L322.3,558.5z" fill="#000000" class="svgShape color000000-39 selectable"></path><path d="M311.9 556.6c-2.5.5-4.8 1.1-7.1 2 28.8-2.1 51.1 18.2 51.1 48.2 0 30-22.3 58.9-51.1 68.2 2.3-.2 4.8-.4 7.1-.9 32.3-6.3 58.4-37.7 58.4-70.2C370.3 571.4 344.2 550.3 311.9 556.6zM468.6 372v-19.8l-15.2-2.5c-2.5-5.2-3.6-7.9-6.1-13.2l7-15.9-13.8-11.3-14.6 9.8-14.3-3.2-5.4-14.3-19.6 3.9-5.4 16.4-14.3 8.8-14.6-4.3-13.9 16.8 7 13.2-5.9 15.5-15.2 8.4v19.8l15.2 2.5 5.9 13.2-7 15.9 13.9 11.3 14.6-9.8 14.3 3.2 5.4 14.3 19.6-3.9 5.4-16.4 14.3-8.8 14.6 4.3 13.8-16.8-7-13.2c2.5-6.3 3.6-9.5 6.1-15.5L468.6 372zM396.4 409.7c-18.4 3.8-33.4-8.4-33.4-27 0-18.6 15-36.4 33.4-40s33.4 8.4 33.4 27C429.8 388.3 414.8 406.2 396.4 409.7L396.4 409.7z" fill="#000000" class="svgShape color000000-40 selectable"></path><path fill="#00c9b7" d="M477.3,372v-19.8l-15.2-2.5l-5.9-13.2l7-15.9l-13.9-11.3l-14.6,9.8l-14.1-3.2l-5.5-14.3l-19.5,3.9L390,322
		l-14.3,8.8l-14.6-4.3l-13.8,16.8l7,13.2l-5.9,15.5l-15.4,8.4v19.8l15.4,2.5l5.9,13.2l-7,15.9l13.8,11.3l14.6-9.8l14.3,3.2l5.5,14.3
		l19.5-3.9l5.5-16.4l14.1-8.8l14.6,4.3l13.9-16.8l-7-13.2l5.9-15.5L477.3,372z M405.2,409.7c-18.4,3.8-33.2-8.4-33.2-27
		c0-18.6,14.8-36.4,33.2-40c18.4-3.6,33.4,8.4,33.4,27C438.6,388.3,423.7,406.2,405.2,409.7z" class="svgShape colord9d9e6-41 selectable"></path><path d="M395.3,452.1c-0.5,0-0.9-0.4-1.3-0.9l-5-13.6l-13-2.9l-14.1,9.5c-0.5,0.4-1.1,0.4-1.6,0L346.4,433
		c-0.4-0.4-0.5-1.1-0.4-1.6l6.8-15.4l-5.5-12.1l-14.5-2.3c-0.5-0.2-1.1-0.5-1.1-1.3v-19.8c0-0.5,0.2-0.9,0.7-1.1l14.8-8.2l5.5-14.5
		l-6.8-12.9c-0.2-0.5-0.2-1.1,0.2-1.4l13.9-16.6c0.4-0.5,0.9-0.7,1.4-0.5l13.9,3.9l13.4-8l5.2-16.1c0.2-0.4,0.5-0.7,1.1-0.9
		l19.6-3.8c0.7-0.2,1.3,0.4,1.4,0.9l5.2,13.6l13,2.9l14.1-9.6c0.5-0.2,1.1-0.2,1.6,0.2l13.9,11.3c0.4,0.4,0.5,1.1,0.4,1.6l-6.8,15.4
		l5.4,12.1l14.6,2.3c0.5,0.2,1.1,0.5,1.1,1.3V372c0,0.5-0.4,0.9-0.7,1.1l-14.8,8.2l-5.5,14.5l6.8,12.9c0.2,0.5,0.2,1.1-0.2,1.4
		l-13.9,16.6c-0.4,0.5-0.9,0.7-1.4,0.5l-13.9-3.9l-13.4,8l-5.4,16.1c0,0.4-0.5,0.7-0.9,0.9l-19.6,3.8L395.3,452.1L395.3,452.1z
		 M375.7,432.1h0.4l14.3,3l0.9,0.9l5,13.2l17.7-3.4l5.2-15.7c0.2-0.4,0.4-0.5,0.7-0.7l14.3-8.8h0.9l13.9,3.9l12.7-15.4l-6.6-12.5
		c-0.2-0.4-0.2-0.7,0-1.1l5.9-15.5l0.5-0.7l14.6-8v-17.7l-14.1-2.3c-0.5-0.2-0.9-0.4-1.1-0.9l-5.9-13c-0.2-0.4-0.2-0.9,0-1.3l6.6-15
		l-12.3-10l-13.8,9.3c-0.4,0.2-0.7,0.4-1.1,0.2l-14.3-3c-0.4-0.2-0.9-0.5-0.9-0.9l-5.2-13.2l-17.7,3.4l-5.2,15.7
		c0,0.4-0.2,0.5-0.5,0.7l-14.3,8.8h-1.1l-13.8-3.9l-12.7,15.4l6.4,12.5c0.2,0.4,0.4,0.7,0.2,1.1l-5.9,15.5l-0.7,0.7l-14.5,8V399
		l14.1,2.3c0.4,0.2,0.9,0.5,1.1,0.9l5.9,13v1.3l-6.6,15l12.3,10l13.8-9.3L375.7,432.1z M398.7,411.9c-6.6,0.2-13-2.1-18-6.4
		c-6.8-5.5-10.5-13.9-10.2-22.7c0-19.1,15.5-37.7,34.5-41.4c9.5-1.8,18.2,0.2,24.8,5.7c6.8,5.5,10.5,13.9,10.2,22.7
		c0,19.1-15.5,37.7-34.5,41.4l0,0C403.2,411.5,401.1,411.9,398.7,411.9z M411.8,343.3c-2.1,0-4.1,0.4-6.3,0.7
		c-17.9,3.4-32.3,20.9-32.3,38.8c-0.4,7.9,3,15.5,9.1,20.7c6.4,5,14.8,6.8,22.7,5c17.9-3.4,32.3-20.9,32.3-38.8
		c0.7-13.8-9.8-25.5-23.6-26.4C413.2,343.3,412.5,343.3,411.8,343.3L411.8,343.3z" fill="#000000" class="svgShape color000000-42 selectable"></path><path d="M405.7,341.7c-1.4,0.4-2.9,0.7-4.3,1.1c17-1.3,30,10.7,30,28.4c0,17.7-13,34.7-30,40.2l4.3-0.5
		c18.9-3.8,34.3-22.1,34.3-41.3C440,350.4,424.6,337.9,405.7,341.7z" fill="#000000" class="svgShape color000000-43 selectable"></path><path fill="#d9d9e6" d="M726.9,829.5c0,0-8.6-12,5.9-15.2c12.3-2.9,25.2,2.7,31.6,13.6c5.5,9.5,20.7,24.5,31.3,29.3
		c10.5,4.8,13.6,4.6,13.6,4.6s-14.6,5.7-27.2,0.2s-20-15.9-27-18.9C748.1,840.1,730.8,835.2,726.9,829.5z" class="svgShape colord9d9e6-44 selectable"></path><path d="M795.8,865.4c-6.1,0.2-12.1-0.9-17.9-3.2c-4.8-2.5-9.1-5.7-12.9-9.6c-3-3.2-6.6-6.1-10.5-8.4c-3.9-2-8.2-3.6-12.5-4.6
		c-4.5-0.9-8.6-2.7-12.3-5.4c-8.9-7.7-11.6-16.4-8-26.1c3.6-9.6,8.6-11.8,13.9-16.1s8.4-6.6,10.7-11.1c5.7-10.4,9.1-17,9.1-17
		c0.4-0.5,1.1-0.9,1.8-0.5c0.7,0.4,0.9,1.1,0.5,1.6c0,0,0,0,0,0.2c0,0-3.4,6.6-9.1,17.1c-2.7,4.8-7,8.4-11.3,11.8s-10.5,8-13.2,15
		c-2.7,7-0.9,16.1,7.3,23c3,2.5,6.8,3.6,11.3,4.8c4.5,1.1,8.9,2.7,13,4.8c4.1,2.3,7.9,5.4,11.1,8.8c3.6,3.8,7.7,6.8,12.3,9.1
		c13.8,6.6,41.8,1.3,47.2-5.2c1.6-1.6,2.1-3.8,1.8-5.9c-1.1-4.6-7.7-9.5-19.6-14.6c-15.5-6.6-19.3-16.4-21.8-23
		c-0.4-1.4-0.9-2.9-1.6-4.1c-3.6-5.9,8.8-29.8,11.1-34.7c0.4-0.7,1.3-0.9,2-0.5l0,0c0.5,0.4,0.9,1.1,0.5,1.8
		c-5.9,11.3-13.2,28.6-11.3,32.2c0.7,1.4,1.4,2.9,2,4.5c2.3,6.4,5.7,15.4,20.2,21.4c14.5,6.1,19.8,11.1,21.3,16.6
		c0.5,2.9-0.4,5.9-2.3,8C824,861.5,809.4,865.4,795.8,865.4z" fill="#000000" class="svgShape color000000-45 selectable"></path><path d="M792.6 822c-3.4 0-5-1.1-11.1-6.8-3.6-3.4-5.9-8-6.4-12.9-.5-3.2-.9-5.4-3.8-7.1-6.4-3.8-10.2-5.9-12.3-6.3h-1.6c-3.4-.9-6.8-.9-10.2.2l-6.1 2.5c-.7.2-1.4-.2-1.8-.9-.2-.7.2-1.4.7-1.6 0 0 0 0 .2 0l6.1-2.5c3.8-1.6 7.7-1.1 11.4-.4h1.6c2.7.4 6.4 2.5 13.4 6.6 3.9 2.3 4.5 5.5 5 8.9.4 4.5 2.5 8.6 5.7 11.4 6.1 5.7 6.8 6.1 9.1 6.1.7 0 1.4.7 1.4 1.4C793.9 821.5 793.3 822 792.6 822zM810.5 863.1c-21.3 0-35.5-19.1-44.3-30.9-2-2.5-3.6-4.8-4.8-6.3-7.9-8.4-19.6-12.1-30.9-9.8-.7.2-1.4-.2-1.6-.7 0 0 0 0 0-.2-.2-.7.2-1.6.9-1.8 12.3-2.7 25 1.4 33.6 10.7 1.8 2 3.4 4.1 5 6.4 8.9 12 23.9 32.2 46.1 29.7.5-.2 1.3.2 1.4.7 0 .2 0 .4 0 .4 0 .7-.5 1.4-1.3 1.6L810.5 863.1zM564 811.1c-.4 0-.7-.2-1.1-.5-.4-.5-.4-1.3 0-1.8l.7-.7c1.6-2 5.4-9.3.2-27.7-11.4-40.4-44.5-40.5-46.1-40.5l0 0c-.5 0-.9-.2-1.1-.7-.4-.4-.2-.9 0-1.4.2-.5 11.6-13 24.8-27.2 26.8-28.4 67-71.3 70.7-82.3 5.4-15.9 28.6-106.5 29.7-110.7s.9-24.1 14.6-37.9c.5-.5 1.4-.5 2 0s.5 1.3 0 1.8l0 0c-13.6 13.6-13.9 36.1-13.9 36.3v.4c-.4.9-24.3 94.7-29.8 111.1-3.9 11.4-42.9 53.1-71.3 83.2-10.5 11.4-19.3 20.7-23 25 8.6.9 35.9 6.6 46.1 42.3 3 10.9 3 18.2 2.1 23 22.5-24.7 104.7-114.5 114.9-127.7 10.2-13.2 37.2-122.4 37.5-123.4.2-.7.9-1.1 1.6-1.1.7.2 1.1 1.1.9 1.8-1.1 4.3-25.9 108.6-37.9 124.3-12 15.7-109.5 121.8-119.9 133.3l-.9.9L564 811.1z" fill="#000000" class="svgShape color000000-46 selectable"></path><path d="M795.1,642.3c-0.4,0-0.7-0.2-1.1-0.5c-2.1-2.5-6.3-8.4-11.4-15.9c-11.6-16.6-29.3-42-43.8-54.7
		c-21.3-18.4-30.7-44.3-30.7-44.7c-0.2-0.7,0.2-1.4,0.9-1.6c0.5-0.4,1.4,0.2,1.6,0.7c0.2,0.5,9.3,25.7,29.8,43.6
		c14.8,12.9,32.5,38.2,44.3,55.2c5.2,7.3,9.1,13.2,11.4,15.5c0.4,0.5,0.4,1.4-0.2,2L795.1,642.3z" fill="#000000" class="svgShape color000000-47 selectable"></path><path d="M804.4 774.9c-13.2 0-37.5-4.1-49.5-10.7-4.6-2.5-7.3-5.4-7.5-8.4-1.6-15 45.4-111.5 47.3-115.6l.5-.5c.7-.5 18.6-12 37.5-3.8.5.4.9 1.1.5 1.8-.2.7-.9.9-1.6.7-16.4-7.1-32.3 2-34.7 3.4-17 34.5-48.2 102.4-47.2 113.6.4 2.1 2.5 4.3 6.3 6.4 15 8.2 50 12.1 55.2 9.5 5.2-2.7 13.4-25.4 28.4-66.8 11.6-32.2 23.8-69.7 24.7-81.3 1.3-16.1-33.2-63.1-58.4-97.4-9.1-12.3-16.8-22.9-21.6-30.2-.4-.7-.2-1.4.4-2 .7-.4 1.6-.2 2 .5l0 0c4.6 7.1 12.5 17.7 21.4 30 26.8 36.6 60.4 82.2 58.9 99.3-1.8 22.7-46.8 146.3-54.5 150.2C809.9 774.7 807.3 775 804.4 774.9zM523.1 899.4c-7.9 0-16.3-4.5-22-19.3-2.7-7-5.2-13.2-7.9-19.1-3.6-8.4-6.8-16.8-9.6-25.5-7-21.4-8-35.9-3.6-42.9 4.5-7 8.4-7.3 14.5-9.5 4.3-1.4 8.6-3.2 12.5-5.4 12.5-6.8 33.4-27.9 33.8-28 .5-.5 1.3-.5 1.8 0 .5.5.5 1.3 0 1.8l0 0c-.9.9-21.4 21.6-34.3 28.6-4.1 2.1-8.4 4.1-12.9 5.5-5.9 2.1-10 3.8-13 8.4-3 4.6-2.7 20.2 3.8 40.7 2.5 8.2 6.1 16.4 9.6 25.2 2.5 6.1 5.2 12.3 7.9 19.3 5.7 14.8 14.8 20.4 27.3 16.1 6.3-2.3 13.4-8.8 11.4-28-.4-5-.7-8.8-.9-12-.2-3.2-.7-7.7-1.3-12.9s-1.1-8.2-1.6-11.6c-1.4-10.5-2.3-16.4-.4-19.1 2-2.7 24.7-30.4 25.5-31.6.5-.5 1.4-.5 2-.2.5.5.5 1.4.2 2-.4.4-23.4 28.4-25.5 31.4-2.1 3-.4 8.2.9 17.1.5 3.4 1.1 7.3 1.6 11.6.5 4.3.9 8.8 1.3 13 .4 4.3.5 6.8.9 12 2.1 22-7.3 28.6-13.2 30.7C528.9 898.8 526.1 899.4 523.1 899.4z" fill="#000000" class="svgShape color000000-48 selectable"></path><path d="M520.9 890.2h-.5c-.7-.2-.9-.9-.7-1.6 0 0 2.3-7.5-2.1-29.8-.9-4.3-1.8-8.8-2.5-13-3.8-19.3-7-36.1-13.2-44.5-6.3-8.4-15.4-6.3-15.4-6.3-.7.2-1.4-.2-1.8-.9-.2-.7.2-1.4.7-1.6 0 0 0 0 .2 0 0-.2 10.5-3.8 18.6 7.1s9.8 25.9 13.4 45.7c.9 4.1 1.6 8.6 2.5 12.9 4.6 23.2 2.3 30.9 2.1 31.3C522 889.9 521.4 890.2 520.9 890.2zM544.1 748.8c0 0-24.1-17.3-29.8-7.7-8 13.8 7.7 29.7 7.7 29.7L544.1 748.8zM565 780l-13.4 16.4c0 0 7.3 22.3 14.8 12.5C574 799.1 565 780 565 780zM743.5 499.6c-3.8-.4-7.5-1.1-11.1-2.1-9.5-2.5-18.8-6.1-27.7-10.2-12.5-5.9-19.5-9.1-51.3-4.3-27.5 3.9-38.8 8.2-42.9 9.8-4.1 1.6-3 1.3-3.9.5-.9-.7-.9-1.4-.9-2.5v-.7c0-9.1 13.2-19.3 28.6-31.1 15.4-11.8 28.4-21.8 33.4-32.9 10.7-22.9 24.3-60 24.5-60.4l0 0c.2-.2 11.1-19.3 12.3-37.5.2-.7.7-1.4 1.4-1.3.7.2 1.3.7 1.3 1.4-1.3 18.2-11.6 36.8-12.5 38.6-.9 1.8-14.1 38-24.5 60.4-5.4 11.8-20.2 23-34.3 33.9-14.1 10.9-27.5 21.1-27.5 28.9v.7l1.1-.5c4.3-1.6 15.7-5.9 43.6-10 32.5-4.8 39.7-1.6 52.7 4.5 8.8 4.1 18 7.5 27.3 10 7.3 2.1 11.1 2.5 12.5 1.8 1.4-.7 1.1-1.6 1.6-3.6.7-3.4 2.1-6.6 4.1-9.5l2.9-3.9c3-4.1 3.9-5.5 12.5-14.1s10.9-10.9 32.9-43.6c6.6-9.6 20.5-35.5 20.9-38.4.2-.7.7-1.3 1.4-1.3.7.2 1.3.7 1.3 1.4-.4 3.8-15.2 30.7-21.4 39.8-22 32.7-22.3 33.2-33 43.8s-9.3 9.8-12.1 13.8l-3 4.1c-1.8 2.5-3 5.4-3.6 8.4-.5 2.3-1.1 4.1-2.9 5.2C746 499.4 744.7 499.8 743.5 499.6z" fill="#000000" class="svgShape color000000-49 selectable"></path><path d="M643.1 517.6c0 0-42.9-19.8-35.9-27.5 0 0 38.4-14.3 51.1-7.9C658.3 482.3 645.8 488.3 643.1 517.6zM598.6 457.3c-.5 0-1.1-.4-1.3-.7-2.7-3.4-5-7-7.1-10.7-10.7-16.6-25-17.7-31.8-18-2.9-.2-4.3-.4-4.6-1.6-.4-1.3.7-2.3 1.1-2.7.4-.4 12.3-15.7 23.2-30.4 21.1-28.6 36.3-48.9 40.2-51.1 6.8-3.8 76.1-32.3 81.8-34.7 1.1-1.3 6.8-6.4 22.5-12.5s20.9-3.4 26.8-2.1c1.8.5 3.8.9 5.7.9.7 0 1.3.5 1.3 1.3l0 0c.2.7-.4 1.3-1.1 1.4h-.2c-2.1-.2-4.1-.4-6.3-.9-8.4-2.3-17.3-1.6-25.4 1.8-16.8 6.6-21.6 12.1-21.6 12.1l-.5.4c-.7.4-75 30.9-81.6 34.7-3.9 2-24.5 30-39.5 50.4-12.3 16.6-20.2 27.2-23 30.2h1.4c6.6.4 22.5 1.4 33.9 19.3 2 3.4 3.9 6.6 6.3 9.8 4.5-3.2 22-31.8 32.7-48.9 8.4-13.6 15-24.5 17.1-26.8 5.7-6.4 47.5-25.2 49.3-25.9.7-.2 1.4 0 1.8.7.2.7-.2 1.4-.7 1.8-12 5.4-43.9 20.4-48.4 25.2-4.5 4.8-8.9 13.4-16.8 26.4C611.8 441.9 602 456.7 598.6 457.3L598.6 457.3z" fill="#000000" class="svgShape color000000-50 selectable"></path><path d="M676 364.4l29.8-31.4c0 0-7 19.5-8.2 20.5C692 357.6 676 364.4 676 364.4zM558.8 425.8c-.2 1.3-10.7-4.1-4.5 14.3 0 0 2.1 4.1 3.9 4.6 1.8.5 9.8-16.3 8.8-17C564.3 426.9 561.6 426.2 558.8 425.8z" fill="#000000" class="svgShape color000000-51 selectable"></path><path d="M558.4 446.2h-.5c-2.1-.7-4.1-4.3-4.6-5.4h-.2c-2.5-7.1-2.7-11.6-.9-13.9 1.3-1.6 3.4-2.3 5.4-2h.4c.4-.4.7-.4 1.1-.4 2.3.5 7.7 1.6 8.8 2.1 1.1.5 2 1.3-2.5 10.2C560.7 445.8 559.5 446.2 558.4 446.2zM555.6 439.6c.7 1.4 1.8 2.7 2.9 3.8 1.8-2 6.4-11.8 7.3-14.6-2.3-.5-4.5-1.1-6.8-1.4h-1.6c-1.3 0-2.5 0-3 .9C553.8 429 552.9 431.7 555.6 439.6L555.6 439.6zM816.5 397.9c.2-14.5-5.2-32.3-4.1-31.3s10.5 15.2 10.5 15.2S816.5 398.5 816.5 397.9z" fill="#000000" class="svgShape color000000-52 selectable"></path><path d="M784.9 496.4c-.9 0-1.8-.2-2.7-.5-13.6-5.4-30-10.2-30.2-10.2-.7-.2-1.1-1.1-.9-1.8s.9-1.1 1.4-.9c0 0 0 0 .2 0 .2.2 16.8 5 30.5 10.4.9.5 2 .7 2.9.2 1.4-.9 2.3-3.6 2.5-7.5.4-14.3 31.3-99.3 32.7-102.9.2-.5.7-.9 1.3-.9.2 0 .2 0 .4.2.7.2 1.1.9.9 1.4 0 0 0 0 0 .2-.4.9-32.2 88.2-32.5 102.2-.2 5-1.4 8.2-3.8 9.5C786.7 496.2 785.8 496.4 784.9 496.4zM722.2 551.2L707.8 526c0 0 2.5 45 1.1 80.4L722.2 551.2zM538.8 831.3c-1.6 0-6.6-.7-9.8-8.9-1.4-4.1-1.3-9.1-.9-13.9.4-4.8.7-13.2-3-17.3-5-4.8-11.3-8.6-17.9-10.9-.7-.4-1.1-1.1-.9-1.8.2-.7.9-1.1 1.6-.9 0 0 .2 0 .2.2 7.1 2.3 13.6 6.3 18.9 11.6 4.6 5 4.1 12.1 3.8 19.3-.4 7.1-.5 9.3.7 12.9 3 7.7 7.3 7.1 7.5 7.1.7 0 1.4.5 1.6 1.3 0 .7-.4 1.3-1.1 1.4H538.8zM555.2 449.6c-.4 0-.7-.2-1.1-.5-.4-.5-.4-1.3.2-1.8 4.8-4.8 12.3-19.5 12.5-19.6.4-.7 1.1-.9 1.8-.5.7.4.9 1.1.5 1.8-.4.5-7.9 15.2-13 20.4L555.2 449.6z" fill="#000000" class="svgShape color000000-53 selectable"></path><path d="M561.3,506.7c-1.3,0-2.5-0.5-3.2-1.4c-0.4-0.5-0.7-1.1-0.9-1.8c-1.6,0.7-3.6,1.1-5.4,1.1l0,0c-1.4,0-2.9-0.5-3.8-1.6
		c-0.7-0.9-1.3-2-1.4-3.2c-1.6,0.5-3.4,0.5-5,0.4c-2.7-0.5-4.8-2.5-5.5-5.2c-2.5,0.9-5.2,0.4-7.1-1.4c-2.1-2.1-2.1-5.5-2.1-7.5
		c0.2-4.1,1.1-8.2,2.7-12.1c1.4-4.5,3.4-8.8,6.1-12.7c4.8-6.3,16.8-13.4,17.3-13.8h0.4c0,0,2.9-1.1,6.6-7c0.4-0.5,1.3-0.7,1.8-0.4
		s0.7,1.1,0.4,1.8l0,0c-3.8,6.1-7,7.7-7.9,8c-0.9,0.4-12.1,7.5-16.6,13.2c-2.3,3.8-4.1,7.7-5.5,11.8c-1.4,3.6-2.3,7.3-2.5,11.3
		c0,1.6,0,4.3,1.3,5.5c1.6,1.4,3.9,1.4,5.5,0.2c0.4-0.4,0.9-0.4,1.4-0.2c0.5,0.4,0.9,0.7,0.7,1.3c-0.2,2.3,1.4,4.5,3.8,4.8
		c1.8,0,3.6-0.4,5.4-0.9c0.4-0.2,0.9-0.2,1.3,0.2c0.4,0.2,0.5,0.7,0.5,1.1c-0.2,1.1,0.2,2.3,0.7,3.2c0.5,0.5,1.1,0.7,1.8,0.7l0,0
		c2.1,0.2,4.1-0.5,5.7-2c0.5-0.4,1.1-0.4,1.6-0.2c0.5,0.4,0.9,0.9,0.7,1.6c-0.2,0.5-0.4,1.6,0.2,2.1s1.1,0.5,1.8,0.4
		c0.7-0.2,8-4.6,9.6-6.3c1.8-1.6,2.5-4.1,2.1-6.4c-0.2-0.7,0.4-1.3,1.1-1.4h0.2c0.7-0.2,1.3,0.4,1.4,1.1c0.2,3.2-0.9,6.3-2.9,8.8
		c-0.4,0.2-6.3,6.4-11.3,7L561.3,506.7z" fill="#000000" class="svgShape color000000-54 selectable"></path><path d="M572 492.3c-5.7 0-13.8-1.6-17-4.6-1.1-.9-1.6-2.3-1.6-3.8.2-1.6 1.1-3 2.3-3.9 2.3-1.8 6.6-2.1 12.5-1.3.2.2.4 0 .5 0s.2-.4 0-.5c-.7-3.2-.9-6.6-.5-9.8 0-.7.5-1.3 1.3-1.3h.2c.7.2 1.3.7 1.3 1.4-.2 3 0 6.1.5 9.1.2 1.1 0 2.1-.9 2.9-.7.7-1.6 1.1-2.7.9-5-.7-8.8-.5-10.5.7-.7.5-1.1 1.3-1.3 2.1 0 .5.4 1.1.7 1.4 3 2.9 12.9 4.5 18.2 3.6h.7c5.5-.9 7.7-1.3 6.8-14.6v-2.3c-.2-4.5.9-8.8 2.9-12.7.2-.9.5-1.8.9-2.7.5-1.3 4.5-8.4 5-9.1.4-.5 1.3-.7 1.8-.4.5.5.7 1.3.4 2l-4.6 8.6-1.1 2.7c-1.8 3.6-2.7 7.7-2.5 11.6v2.1c1.1 15.2-2.1 16.4-9.1 17.5h-.7L572 492.3zM537.2 494.8l-1.1-.5c-.4-.5-.4-1.4.2-2 .2 0 8.4-7.1 8.9-13.2 0-1.3-.5-3.4-1.4-3.8-.9-.4-3.2.7-6.6 5-.5.5-1.3.5-1.8.2-.5-.5-.7-1.4-.2-2 3.9-4.8 7-6.8 9.5-5.7 2.5 1.1 3.2 4.5 3.2 6.4-.5 7.1-9.5 14.8-9.8 15.2L537.2 494.8z" fill="#000000" class="svgShape color000000-55 selectable"></path><path d="M547 499.2c-.4 0-.7-.2-.9-.5-.4-.5-.4-1.3.2-1.8l0 0c3.4-3.2 5.9-7.3 7.1-11.8.2-.7 1.1-1.1 1.8-.9.7.2 1.1.9.9 1.6-1.4 5.2-4.3 9.6-8.2 13.2L547 499.2zM558.4 502.3h-.7c-.5-.5-.7-1.4-.2-2 1.3-1.6 4.8-6.6 5.4-9.1.4-.7 1.3-.9 2-.5.4.2.7.7.7 1.1-.9 3.6-5.7 10-6.1 10.2C559.3 502.3 558.8 502.4 558.4 502.3zM554.3 472.8h-1.8c-.7-.2-1.3-.7-1.3-1.4.2-.7.7-1.3 1.4-1.3 1.6.2 14.8.2 19.1-5.4.4-.5 1.3-.7 1.8-.2l0 0c.7.5.7 1.3.4 2C569.5 471.9 558.8 472.8 554.3 472.8zM555.6 482.4c-.7 0-1.3-.4-1.3-1.1 0-.7-.7-2.7-1.6-3-.9-.4-4.5 1.1-5.4 1.8-.5.4-1.4.2-1.8-.4s-.4-1.3.2-1.8l0 0c.5-.4 4.8-3.6 8-2.1 2 1.1 3.2 3 3.2 5.2 0 .7-.5 1.3-1.3 1.4H555.6z" fill="#000000" class="svgShape color000000-56 selectable"></path><path fill="none" d="M959.8,329.2c-1.4-1.1-3.4-1.3-5-0.2l-3.9,2c-3.6,1.8-8.6,4.3-9.5,6.8s-3.6,9.8-3.9,11.4
		c-0.4,1.6-0.4,1.3-5.4,4.8c3.4,1.6,6.3,3.9,8.4,7c3.9,5.7,6.3,12.5,6.4,19.5c2.1-1.3,4.3-2.7,6.3-4.3c1.3-1.1,2.7-1.6,4.3-1.8
		c2.3-0.4,4.6-0.9,6.8-2c9.5-3.9,16.3-9.5,18.4-14.8c2.1-5.4,0.7-4.3,0.2-5.7c-0.5-1.1-0.7-2.1-0.9-3.2c-0.2-1.8-0.9-3.6-2.3-4.8
		c-0.4-0.4-0.5-1.1-0.4-1.6c0.4-1.3,0.2-2.5-0.4-3.6c-0.5-1.6-2.1-2.7-3.8-2.7c-0.7-0.2-1.3-0.5-1.3-1.3v-0.5c0-0.9-0.2-1.8-0.5-2.7
		c-0.5-1.4-1.8-2.3-3.4-2.5c-1.1-0.4-2.3,0.2-2.9,1.3c-2.5,3.8-14.1,10-15.4,10.7c-0.5,0.5-1.4,0.7-2,0.2s-0.7-1.4-0.2-2
		c0.2-0.2,0.4-0.4,0.7-0.5c3.4-1.8,6.6-3.8,9.8-5.9l0,0C961,331.7,960.9,330.1,959.8,329.2z" class="selectable"></path><path d="M940.5 361c-2.1-3-5-5.4-8.4-7l-2.5 1.8c3.6 1.4 6.4 3.8 8.8 6.8 3.9 5.7 6.1 12.7 5.9 19.6l2.7-1.8C946.8 373.5 944.4 366.7 940.5 361zM925.3 352.2c-3 0-32.5 17.7-46.3 25.9-5.2-8-30.7-49.7-31.1-50-5.9-13.2-11.6-20.7-25.5-23.2-10.4-2-15.9-4.8-17.3-5.7-1.6-3.2-4.1-5.7-7.1-7.5-6.3-3.8-30-5.7-34.3-5-1.4.2-7.9 2.9-8.8 3-7.9 3.2-7.9 3.6-7.9 4.5-.2.7.4 1.3.9 1.4.5.2 1.3 0 1.4-.5l0 0c4.8-2.1 9.8-4.1 14.8-5.7 4.1-.7 27 1.4 32.3 4.6 5.4 3.2 6.1 6.4 6.1 6.4.2.4.4.5.7.7.2.2 6.1 4.1 18.8 6.3s17.1 7.3 23.6 22c1.3 2 29.1 47.2 32 51.4.4.5 1.3.7 1.8.4 16.3-10 43.2-25.9 45.9-26.3h.7l3-2C927.8 352.4 926.6 352.2 925.3 352.2z" fill="#000000" class="svgShape color000000-58 selectable"></path><path d="M942.1 388.3c-26.8 15.5-68.4 38.4-74.5 38.4l0 0c-6.8-.4-17-2.3-26.4-16.6s-28.8-47.9-28.9-48.2c-.2-.7-.9-1.3-1.8-1.1-.7.2-1.3.9-1.1 1.8 0 .4.2.5.5.7.2.4 19.8 34.5 28.9 48.2s16.8 17.3 28.6 17.9h.2c8.8 0 69.1-34.8 76.1-38.9h.4c1.4-2 2.1-4.1 2.5-6.4l-3.2 2.1C943 386.9 942.6 387.6 942.1 388.3zM929.1 352.9l-3 2 3.6.9 2.5-1.8C931.2 353.5 930.1 353.1 929.1 352.9z" fill="#000000" class="svgShape color000000-59 selectable"></path><path d="M954.8,329c1.6-1.1,3.6-0.9,5,0.2c0.9,0.9,1.1,2.3,0.4,3.4c1.1-0.7,2.1-1.4,3.2-2.3c-0.2-1.3-0.7-2.5-1.8-3.2
			c-2.3-2-5.7-2.1-8.2-0.5l-3.6,2c-4.3,2-9.5,4.6-10.9,8c-1.4,3.4-3.6,9.5-4.1,12l-5.7,4.3c1.1,0.2,2.1,0.5,3,1.1
			c5-3.4,5.2-4.3,5.4-4.6c0.4-1.6,2.3-7.3,3.9-11.4c1.6-4.1,5.9-5,9.5-6.8L954.8,329z" fill="#000000" class="svgShape color000000-60 selectable"></path><path d="M985.3 351c-.4-.9-.7-1.8-.7-2.7-.4-2.1-1.3-4.3-2.7-5.9.4-1.6.2-3.2-.5-4.6-.7-2.1-2.7-3.8-4.8-4.3-.2-.7-.4-1.6-.5-2.7-.9-2.5-3.2-4.1-5.7-4.5-2.1-.4-4.5.5-5.5 2.5l-1.4 1.6c0 1.1-.2 2.1-.7 3.2-.4.7-1.1.9-1.8.7-.5-.4-.9-.9-.7-1.6-3.2 2.1-6.4 4.1-9.8 5.9-.7.2-1.3.9-1.1 1.8.2.7.9 1.3 1.8 1.1.4 0 .5-.2.7-.5 1.3-.7 12.9-7 15.4-10.7.5-1.1 1.8-1.6 2.9-1.3 1.6.2 2.9 1.1 3.4 2.5.4.9.5 1.8.5 2.7v.5c0 .7.5 1.1 1.3 1.3 1.6 0 3.2 1.1 3.8 2.7.5 1.1.7 2.3.4 3.6-.2.5 0 1.3.4 1.6 1.4 1.3 2.1 3 2.3 4.8.2 1.1.4 2.1.9 3.2.5 1.4 1.1 2.3-.2 5.7-1.3 3.4-8.9 10.9-18.4 14.8-2.1 1.1-4.5 1.6-6.8 2-1.6.2-3 .7-4.3 1.8-2 1.6-4.1 3-6.3 4.3 0 1.1-.2 2.3-.4 3.4 2.9-1.8 5.7-3.6 8.4-5.7.9-.7 2-1.1 3-1.1 2.5-.5 5-1.3 7.3-2.1 10-4.3 17.5-10.4 19.8-16.4C987.5 352.4 986.2 352.9 985.3 351zM946.9 380.4l-2.7 1.8c-.2 1.3-.5 2.5-.9 3.8l3.2-2.1C946.8 382.8 946.9 381.5 946.9 380.4z" fill="#000000" class="svgShape color000000-61 selectable"></path><path d="M960.9 334.4c.7.2 1.4 0 1.8-.7.5-1.1.7-2.1.7-3.2-1.1.9-2.1 1.6-3.2 2.3C960 333.5 960.3 334 960.9 334.4zM592.4 447.6c0 0-5.9 11.3-5.5 12s11.8-.9 11.4-2.9C597.9 454.8 592.4 447.6 592.4 447.6zM824.2 291.7c-3.6-.2-7-1.1-10.2-2.3-5.2-2.1-10.2-5-14.6-8.6-.5-.5-.5-1.3-.2-1.8.5-.5 1.4-.7 2-.2 4.3 3.2 8.9 5.9 13.9 8 6.1 2.3 10.5 2.7 13.4 1.1 2.5-1.6 3.9-4.5 3.9-7.3 0 0 1.6-10.2 1.6-12.9s2.3-3.2 3.9-3.8c1.6-.5 2.3-1.1 2.5-2 .2-.9-.4-2-1.4-3.2-1.4-1.6-2.5-3.8-3-5.9-.2-2.9 0-5.5.2-8.4.4-6.6.9-15.9-.5-23.2-.2-.7.2-1.4.9-1.6h.2c.5-.2 1.3.2 1.4.7 0 .2 0 .4 0 .4 1.6 7.7 1.1 17.1.7 23.9-.2 2.5-.4 5.2-.2 7.7.4 1.8 1.3 3.4 2.3 4.8 1.4 1.3 2.3 3.2 2.1 5.2-.4 2.5-2.7 3.4-4.3 3.9-1.6.5-2 1.1-2.1 1.4-.2 3-1.4 12.9-1.6 13.2-.5 4.5-2.3 7.7-5.2 9.3C828.1 291.1 826.2 291.7 824.2 291.7zM786.9 281.7c-3.9 0-16.4-4.3-19.1-5.2-.7-.2-1.1-.9-.9-1.6 0 0 0-.2.2-.2.2-.7.9-1.1 1.4-.9 0 0 0 0 .2 0 5.9 2.1 16.3 5.4 18.4 5.2s2.3-1.4 3.9-4.1c1.6-2.7 1.4-2.5 2.3-4.1 1.4-1.8 3-3.4 5-4.8 2-1.1 3.6-2.9 4.5-5 .2-.7.9-1.1 1.4-.9 0 0 0 0 .2 0 .7.2 1.1.9.9 1.4 0 0 0 0 0 .2-.9 2.7-2.9 5-5.4 6.4-1.6 1.3-3 2.7-4.3 4.3-.9 1.3-1.6 2.5-2.3 3.8-1.8 2.9-3 5.2-6.1 5.5L786.9 281.7z" fill="#000000" class="svgShape color000000-62 selectable"></path><path d="M810.6,267c-2,0-6.3-0.9-9.1-7.7c-2.9-6.8-2.1-14.5,3.8-17.5s9.5,3.9,9.6,4.1c0.5,0.5,0.4,1.3,0,1.8c0,0-0.2,0.2-0.4,0.2
		c-0.5,0.4-1.4,0.2-1.8-0.4c0-0.2-3.2-4.8-6.3-3.2s-4.6,9.3-2.5,13.9s6.8,6.1,6.8,6.1c0.7-0.2,1.4,0.4,1.6,1.1
		c0.2,0.5-0.2,1.3-0.7,1.4c-0.2,0-0.4,0-0.4,0L810.6,267z" fill="#000000" class="svgShape color000000-63 selectable"></path><path d="M811.2,257.5h-0.5c-0.5-0.2-0.9-0.7-0.9-1.3c0-0.2,0-0.2,0.2-0.4c0.7-1.4,0.7-3.2,0-4.6c-0.4-0.5-0.9-0.9-1.4-1.1
		c-1.6-0.2-2,2-2,2c0,0.7-0.7,1.3-1.4,1.1h-0.2c-0.7-0.2-1.1-0.7-1.1-1.4c0.4-1.8,1.8-4.6,5-4.1c1.4,0.2,2.7,1.1,3.4,2.3
		c1.1,2.1,1.1,4.6,0.2,6.8C812.1,257.2,811.7,257.5,811.2,257.5z" fill="#000000" class="svgShape color000000-64 selectable"></path><path d="M811.7 261.5H811c0-.2-3.6-2-3.8-5.7-.2-3.8.2-3.8 1.4-4.5 1.1-.5 2.3-.5 3.4 0 .7.4.9 1.1.5 1.6 0 0 0 0 0 .2-.4.7-1.1.9-1.8.7h-.7c0 0-.4.4-.2 2 .4 1.4 1.3 2.9 2.5 3.6.5.4.9 1.1.5 1.8C812.6 261.5 812.3 261.5 811.7 261.5zM826.9 239.1l-1.1-.4c-.4-.5-.4-1.4.2-2 2.3-1.8 5.5-2.5 8.4-1.6.7.2 1.1.9.9 1.4 0 0 0 0 0 .2-.2.7-1.1 1.1-1.8.9-2-.7-4.1-.2-5.7 1.1C827.6 239.1 827.3 239.1 826.9 239.1z" fill="#000000" class="svgShape color000000-65 selectable"></path><ellipse cx="831.1" cy="248.1" rx="2.1" ry=".9" transform="rotate(-88.8 831.116 248.116) scale(1.00002)" fill="#000000" class="svgShape color000000-66 selectable"></ellipse><path d="M831.4 277c-2.5 0-4.8-1.1-6.6-2.7h-.4c-.4-.2-.7-.7-.7-1.3-.2-.7.4-1.3 1.1-1.4h.2c.5 0 1.1.4 1.4.7 1.6 1.6 3.8 2.3 6.1 2.1.7-.2 1.3.4 1.4 1.1 0 .7-.5 1.4-1.3 1.6L831.4 277zM813.1 247l-.7-.4c-.5-.4-.7-1.3-.4-1.8 1.1-2.1 1.6-4.5 1.6-7 0-.2 1.1-10.7 3.9-12.9 1.6-.7 3.4-1.3 5.2-1.3 4.1-.5 9.6-1.3 13-4.5.5-.5 1.4-.5 2 0 .5.5.5 1.3 0 1.8l0 0c-4.1 4.1-10.5 4.8-14.6 5.4-1.3 0-2.7.4-3.9.7-1.3 1.1-2.7 8.8-2.9 10.7 0 2.9-.7 5.7-2 8.4C814 246.7 813.7 247 813.1 247z" fill="#000000" class="svgShape color000000-67 selectable"></path><path d="M765.5 287.4h-.7c-.7-.4-.9-1.1-.5-1.6 0 0 0 0 0-.2 1.1-1.6 2-7.1 2.3-10.2h.2c.2-.5 0-1.3-.2-1.8-1.6-1.8-15.4-17.3-15.2-33.8.2-19.8 6.3-44.7 34.5-50.6 1.1-.2 29.7-5.2 49.1 6.8 4.1 2.5 8.4 4.5 12.9 5.9 3.8 1.3 6.8 2.3 8.8 4.6s3 5 2.3 7.1c-.7 2.1-4.6 4.6-6.6 5.2.2 2.7-.9 5.2-2.7 7.1-2.3 2.1-5.9 2.7-10.5 1.8-.7-.4-.9-1.3-.5-2 .2-.4.7-.7 1.1-.7 3.8.9 6.4.4 8.2-1.1 1.3-1.6 2-3.8 1.8-5.9-.2-.7.4-1.4 1.1-1.6 1.3-.2 5-1.4 5.7-3.8.7-2.3-.2-2.7-1.8-4.5-1.6-1.8-4.1-2.7-7.7-3.9-4.6-1.6-9.1-3.6-13.4-6.1-18.6-11.4-47-6.4-47.3-6.4-26.3 5.5-32 29.1-32.2 47.9-.2 15.9 14.5 31.8 14.6 32v.4c.5 1.3.7 2.7.4 3.9-.2 1.3-1.1 8.6-2.7 11.1C766.2 287.4 765.8 287.4 765.5 287.4zM803.3 299.5L803.3 299.5c-.7 0-1.3-.5-1.3-1.3v-.2c.5-5 1.6-9.8 3.2-14.6.2-.7.9-1.1 1.6-.9 0 0 .2 0 .2.2.5.4.9.9.7 1.6-1.6 4.5-2.7 9.1-3 13.9C804.6 299 804 299.5 803.3 299.5z" fill="#000000" class="svgShape color000000-68 selectable"></path><path d="M804.7,289.7c0,0-6.1-10.5-4.8-10.4l6.4,4.5C806.7,284,804.7,289.7,804.7,289.7z" fill="#000000" class="svgShape color000000-69 selectable"></path><g><polygon fill="#d9d9e6" points="629.6 1359.6 630 1359.6 676 1313.6 676 1313.2" class="svgShape colord9d9e6-71 selectable"></polygon><polygon fill="#d9d9e6" points="894.8 1094.4 772.6 1216.6 772.6 1217 894.8 1094.8" class="svgShape colord9d9e6-72 selectable"></polygon><polygon fill="#d9d9e6" points="1113.6 875.6 991.2 998 991.2 998.3 1113.6 876" class="svgShape colord9d9e6-73 selectable"></polygon><polygon fill="#d9d9e6" points="1201.5 787.7 1201.5 788.1 1323.7 665.9 1323.7 665.5" class="svgShape colord9d9e6-74 selectable"></polygon><polygon fill="#d9d9e6" points="676 1263.2 569.9 1369.2 574.2 1368.5 676 1266.8" class="svgShape colord9d9e6-75 selectable"></polygon><polygon fill="#d9d9e6" points="894.8 1044.3 772.6 1166.5 772.6 1170.2 894.8 1048" class="svgShape colord9d9e6-76 selectable"></polygon><polygon fill="#d9d9e6" points="991.2 951.5 1113.6 829.2 1113.6 825.5 991.2 947.8" class="svgShape colord9d9e6-77 selectable"></polygon><polygon fill="#d9d9e6" points="1201.5 741.3 1323.7 619.1 1323.7 615.3 1201.5 737.5" class="svgShape colord9d9e6-78 selectable"></polygon><polygon fill="#d9d9e6" points="676 1216.4 553.8 1338.6 553.8 1342.5 676 1220.3" class="svgShape colord9d9e6-79 selectable"></polygon><polygon fill="#d9d9e6" points="894.8 997.6 772.6 1119.8 772.6 1123.6 894.8 1001.4" class="svgShape colord9d9e6-80 selectable"></polygon><polygon fill="#d9d9e6" points="991.2 905 1113.6 782.6 1113.6 778.8 991.2 901.1" class="svgShape colord9d9e6-81 selectable"></polygon><polygon fill="#d9d9e6" points="1201.5 694.7 1314.3 581.8 1309.8 582.6 1201.5 690.9" class="svgShape colord9d9e6-82 selectable"></polygon><polygon fill="#d9d9e6" points="676 1169.6 553.8 1291.8 553.8 1295.7 676 1173.5" class="svgShape colord9d9e6-83 selectable"></polygon><polygon fill="#d9d9e6" points="894.8 950.8 772.6 1073 772.6 1076.9 894.8 954.7" class="svgShape colord9d9e6-84 selectable"></polygon><polygon fill="#d9d9e6" points="1113.6 735.9 1113.6 732 991.2 854.3 991.2 858.3" class="svgShape colord9d9e6-85 selectable"></polygon><polygon fill="#d9d9e6" points="1201.5 648 1258.7 590.8 1254.1 591.5 1201.5 644.1" class="svgShape colord9d9e6-86 selectable"></polygon><polygon fill="#d9d9e6" points="676 1123.2 553.8 1245.4 553.8 1248.9 676 1126.7" class="svgShape colord9d9e6-87 selectable"></polygon><polygon fill="#d9d9e6" points="894.8 904.4 772.6 1026.5 772.6 1030.1 894.8 907.9" class="svgShape colord9d9e6-88 selectable"></polygon><polygon fill="#d9d9e6" points="991.2 811.5 1079.3 723.4 1075.1 724.1 991.2 807.9" class="svgShape colord9d9e6-89 selectable"></polygon><polygon fill="#d9d9e6" points="1201.5 601.2 1203 599.7 1201.5 600" class="svgShape colord9d9e6-90 selectable"></polygon><polygon fill="#d9d9e6" points="676 1076.4 553.8 1198.6 553.8 1202.5 676 1080.3" class="svgShape colord9d9e6-91 selectable"></polygon><polygon fill="#d9d9e6" points="772.6 983.7 894.8 861.5 894.8 857.6 772.6 979.7" class="svgShape colord9d9e6-92 selectable"></polygon><polygon fill="#d9d9e6" points="1024 732.3 1019.3 733 991.2 761.1 991.2 765" class="svgShape colord9d9e6-93 selectable"></polygon><polygon fill="#d9d9e6" points="676 1029.9 553.8 1152.1 553.8 1155.7 676 1033.5" class="svgShape colord9d9e6-94 selectable"></polygon><polygon fill="#d9d9e6" points="772.6 936.9 847 862.5 842.6 863.2 772.6 933.2" class="svgShape colord9d9e6-95 selectable"></polygon><polygon fill="#d9d9e6" points="676 983.1 553.8 1105.3 553.8 1109.2 676 987" class="svgShape colord9d9e6-96 selectable"></polygon><polygon fill="#d9d9e6" points="791.6 871.3 787 872 772.6 886.5 772.6 890.3" class="svgShape colord9d9e6-97 selectable"></polygon><polygon fill="#d9d9e6" points="626.4 985.9 553.8 1058.5 553.8 1062.4 631 985.2" class="svgShape colord9d9e6-98 selectable"></polygon><polygon fill="#d9d9e6" points="571 994.8 553.8 1012.1 553.8 1015.6 575.3 994.1" class="svgShape colord9d9e6-99 selectable"></polygon><polygon fill="#d9d9e6" points="1323.7 1085.1 1201.5 1207.3 1201.5 1207.5 1323.7 1085.3" class="svgShape colord9d9e6-100 selectable"></polygon><polygon fill="#d9d9e6" points="1072.6 1286 1077.3 1285.3 1113.6 1248.9 1113.6 1245" class="svgShape colord9d9e6-101 selectable"></polygon><polygon fill="#d9d9e6" points="1323.7 1034.9 1201.5 1157.1 1201.5 1161 1323.7 1038.9" class="svgShape colord9d9e6-102 selectable"></polygon><polygon fill="#d9d9e6" points="1113.6 1198.4 1017.2 1294.8 1021.6 1294.1 1113.6 1202.1" class="svgShape colord9d9e6-103 selectable"></polygon><polygon fill="#d9d9e6" points="1201.5 1114.2 1323.7 992.1 1323.7 988.3 1201.5 1110.5" class="svgShape colord9d9e6-104 selectable"></polygon><polygon fill="#d9d9e6" points="1113.6 1151.8 991.2 1274.1 991.2 1277.9 1113.6 1155.5" class="svgShape colord9d9e6-105 selectable"></polygon><polygon fill="#d9d9e6" points="1201.5 1067.6 1323.7 945.4 1323.7 941.7 1201.5 1063.9" class="svgShape colord9d9e6-106 selectable"></polygon><polygon fill="#d9d9e6" points="1113.6 1105 991.2 1227.3 991.2 1231.2 1113.6 1108.9" class="svgShape colord9d9e6-107 selectable"></polygon><polygon fill="#d9d9e6" points="1201.5 1021 1323.7 898.8 1323.7 894.9 1201.5 1017.1" class="svgShape colord9d9e6-108 selectable"></polygon><polygon fill="#d9d9e6" points="849.7 1322.5 853.9 1321.8 894.8 1280.9 894.8 1277.3" class="svgShape colord9d9e6-109 selectable"></polygon><polygon fill="#d9d9e6" points="1113.6 1058.5 991.2 1180.9 991.2 1184.4 1113.6 1062.1" class="svgShape colord9d9e6-110 selectable"></polygon><polygon fill="#d9d9e6" points="1201.5 974.2 1323.7 852 1323.7 848.4 1201.5 970.6" class="svgShape colord9d9e6-111 selectable"></polygon><polygon fill="#d9d9e6" points="894.8 1230.5 793.9 1331.4 798.6 1330.7 894.8 1234.5" class="svgShape colord9d9e6-112 selectable"></polygon><polygon fill="#d9d9e6" points="991.2 1134.1 991.2 1138 1113.6 1015.6 1113.6 1011.7" class="svgShape colord9d9e6-113 selectable"></polygon><polygon fill="#d9d9e6" points="1201.5 927.8 1323.7 805.6 1323.7 801.6 1201.5 923.8" class="svgShape colord9d9e6-114 selectable"></polygon><polygon fill="#d9d9e6" points="894.8 1183.9 772.6 1306.1 772.6 1309.8 894.8 1187.7" class="svgShape colord9d9e6-115 selectable"></polygon><polygon fill="#d9d9e6" points="1113.6 965.1 991.2 1087.5 991.2 1091.2 1113.6 968.8" class="svgShape colord9d9e6-116 selectable"></polygon><polygon fill="#d9d9e6" points="1201.5 881 1323.7 758.8 1323.7 755 1201.5 877.2" class="svgShape colord9d9e6-117 selectable"></polygon><polygon fill="#d9d9e6" points="894.8 1137.3 772.6 1259.5 772.6 1263.2 894.8 1141" class="svgShape colord9d9e6-118 selectable"></polygon><polygon fill="#d9d9e6" points="1113.6 918.5 991.2 1040.8 991.2 1044.6 1113.6 922.2" class="svgShape colord9d9e6-119 selectable"></polygon><polygon fill="#d9d9e6" points="1201.5 834.3 1323.7 712.2 1323.7 708.4 1201.5 830.6" class="svgShape colord9d9e6-120 selectable"></polygon><polygon fill="#d9d9e6" points="676 1309.7 676 1309.3 624.9 1360.4 625.3 1360.3" class="svgShape colord9d9e6-121 selectable"></polygon><polygon fill="#d9d9e6" points="772.6 1212.7 772.6 1213 894.8 1090.8 894.8 1090.5" class="svgShape colord9d9e6-122 selectable"></polygon><polygon fill="#d9d9e6" points="1113.6 871.7 991.2 994 991.2 994.4 1113.6 872" class="svgShape colord9d9e6-123 selectable"></polygon><polygon fill="#d9d9e6" points="1201.5 784.1 1323.7 662 1323.7 661.6 1201.5 783.8" class="svgShape colord9d9e6-124 selectable"></polygon><polygon fill="#d9d9e6" points="625.3 1360.3 629.6 1359.6 676 1313.2 676 1309.7" class="svgShape colord9d9e6-125 selectable"></polygon><polygon fill="#d9d9e6" points="772.6 1213 772.6 1216.6 894.8 1094.4 894.8 1090.8" class="svgShape colord9d9e6-126 selectable"></polygon><polygon fill="#d9d9e6" points="1113.6 872 991.2 994.4 991.2 998 1113.6 875.6" class="svgShape colord9d9e6-127 selectable"></polygon><polygon fill="#d9d9e6" points="1323.7 665.5 1323.7 662 1201.5 784.1 1201.5 787.7" class="svgShape colord9d9e6-128 selectable"></polygon><polygon fill="#d9d9e6" points="1323.7 1225 1323.7 1221.4 1290.7 1254.4 1294.9 1253.7" class="svgShape colord9d9e6-129 selectable"></polygon><polygon fill="#d9d9e6" points="1323.7 1174.6 1234.9 1263.4 1239.6 1262.6 1323.7 1178.6" class="svgShape colord9d9e6-130 selectable"></polygon><polygon fill="#d9d9e6" points="1323.7 1128 1201.5 1250.2 1201.5 1253.9 1323.7 1131.7" class="svgShape colord9d9e6-131 selectable"></polygon><polygon fill="#d9d9e6" points="1323.7 1081.7 1323.7 1081.4 1201.5 1203.6 1201.5 1203.9" class="svgShape colord9d9e6-132 selectable"></polygon><polygon fill="#d9d9e6" points="1201.5 1203.9 1201.5 1207.3 1323.7 1085.1 1323.7 1081.7" class="svgShape colord9d9e6-133 selectable"></polygon></g></svg></g></svg>