<svg id="SvgjsSvg1001" width="360" height="360" xmlns="http://www.w3.org/2000/svg" version="1.1" xmlns:xlink="http://www.w3.org/1999/xlink" xmlns:svgjs="http://svgjs.com/svgjs"><defs id="SvgjsDefs1002"></defs><g id="SvgjsG1008"><svg xmlns="http://www.w3.org/2000/svg" enable-background="new 0 0 997.859 1028.989" viewBox="0 0 997.859 1028.989" width="360" height="360"><switch fill="#000000" class="svgShape color000000-0 selectable"><g><rect width="997.859" height="1028.989" fill="none"></rect><ellipse cx="553.971" cy="992.033" fill="#00c9b7" rx="237.063" ry="33.916" class="svgShape colorf9e0d7-3"></ellipse><path fill="#00c9b7" d="M140.597,115.598c14.265-17.278,36.116-34.845,56.787-26.2c14.391,6.019,21.37,23.281,20.268,38.841						c-1.102,15.56-8.538,29.868-15.822,43.662C287.517,77.952,411.474,19.981,538.51,14.446
						c127.035-5.535,255.565,41.436,349.099,127.577c13.328,12.274,26.323,25.848,32.575,42.853
						c6.252,17.006,4.157,38.258-9.406,50.273c-13.562,12.015-39.057,8.95-45.671-7.918c-11.122,27.447,8.635,56.653,25.089,81.277
						c66.137,98.973,92.196,223.924,71.134,341.082c-3.101,17.252-7.454,34.926-18.21,48.767
						c-10.756,13.84-29.473,22.87-46.152,17.483c-16.68-5.387-26.331-28.57-14.988-41.932
						c-17.795,16.599-35.59,33.199-53.385,49.798c-80.389,74.987-162.65,151.248-262.605,197.016
						c-10.791,4.941-22.373,9.606-34.165,8.256c-11.791-1.35-23.483-10.852-23.074-22.714c0.924-26.794,51.686-25.862,55.418-52.411
						c1.959-13.934-12.435-25.696-26.466-26.755c-14.032-1.059-27.426,5.204-40.437,10.563
						c-82.406,33.945-177.691,35.422-261.11,4.047c-83.419-31.376-154.113-95.28-193.723-175.118
						c-4.715-9.504-9.111-19.912-7.496-30.399c1.615-10.486,11.707-20.311,22.004-17.753c14,3.478,18.772,25.723,33.197,25.619
						c15.037-0.109,16.587-22.091,12.916-36.673C83.006,527.737,40.44,431.348,47.622,348.535
						C54.914,264.453,86.802,180.759,140.597,115.598z" class="svgShape color606060-4"></path><circle cx="523.545" cy="215.396" r="41.528" fill="#4633a7" class="svgShape colorf9e0d7-5"></circle><path fill="#4633a7" d="M466.521,767.288c-0.936,0-1.709-0.745-1.739-1.686c-0.03-0.961,0.724-1.765,1.685-1.794
							c4.545-0.143,9.185-0.43,13.79-0.853c0.956-0.087,1.806,0.617,1.894,1.574c0.087,0.958-0.618,1.805-1.574,1.894
							c-4.675,0.43-9.386,0.721-14.001,0.865C466.558,767.288,466.539,767.288,466.521,767.288z M452.594,767.285
							c-0.019,0-0.038,0-0.057-0.001c-4.675-0.148-9.388-0.451-14.008-0.898c-0.957-0.093-1.657-0.944-1.565-1.901
							c0.092-0.957,0.935-1.657,1.901-1.565c4.546,0.44,9.183,0.736,13.784,0.884c0.961,0.03,1.715,0.834,1.684,1.795
							C454.302,766.542,453.529,767.285,452.594,767.285z M494.233,764.74c-0.846,0-1.588-0.618-1.719-1.48
							c-0.144-0.951,0.51-1.838,1.461-1.982c4.486-0.68,9.063-1.505,13.603-2.453c0.944-0.194,1.864,0.407,2.061,1.349
							c0.196,0.941-0.408,1.863-1.349,2.06c-4.604,0.961-9.244,1.797-13.793,2.488C494.408,764.733,494.32,764.74,494.233,764.74z
							 M424.891,764.6c-0.093,0-0.188-0.007-0.283-0.023l-0.374-0.061c-4.445-0.735-8.952-1.629-13.397-2.655
							c-0.936-0.216-1.521-1.151-1.305-2.089c0.216-0.936,1.153-1.513,2.088-1.305c4.375,1.011,8.808,1.891,13.179,2.614l0.371,0.06
							c0.949,0.155,1.592,1.051,1.437,1.999C426.466,763.994,425.728,764.6,424.891,764.6z M521.475,759.062
							c-0.771,0-1.476-0.516-1.682-1.296c-0.246-0.93,0.308-1.883,1.237-2.129c4.408-1.166,8.875-2.47,13.279-3.873
							c0.918-0.293,1.895,0.215,2.187,1.131c0.292,0.916-0.213,1.895-1.13,2.186c-4.458,1.421-8.981,2.74-13.444,3.921
							C521.772,759.043,521.622,759.062,521.475,759.062z M397.769,758.349c-0.164,0-0.331-0.023-0.497-0.073
							c-4.417-1.314-8.898-2.792-13.319-4.392c-0.904-0.326-1.372-1.325-1.045-2.229c0.328-0.903,1.327-1.372,2.229-1.044
							c4.358,1.577,8.775,3.033,13.128,4.329c0.921,0.274,1.446,1.243,1.172,2.165C399.213,757.86,398.52,758.349,397.769,758.349z
							 M547.996,750.632c-0.708,0-1.373-0.434-1.632-1.136c-0.335-0.902,0.126-1.904,1.027-2.237
							c4.255-1.577,8.585-3.29,12.869-5.096c0.888-0.375,1.906,0.045,2.28,0.93c0.373,0.886-0.043,1.906-0.93,2.28
							c-4.331,1.824-8.708,3.557-13.01,5.15C548.402,750.598,548.196,750.632,547.996,750.632z M371.587,748.893
							c-0.227,0-0.458-0.044-0.68-0.138c-4.221-1.793-8.513-3.746-12.755-5.806c-0.865-0.421-1.225-1.462-0.805-2.327
							c0.42-0.866,1.463-1.227,2.326-0.806c4.19,2.035,8.427,3.964,12.595,5.733c0.885,0.377,1.298,1.398,0.922,2.283
							C372.908,748.495,372.264,748.893,371.587,748.893z M573.65,739.84c-0.653,0-1.28-0.369-1.577-0.999
							c-0.409-0.869-0.036-1.908,0.834-2.317c4.132-1.945,8.31-4.011,12.416-6.141c0.852-0.446,1.904-0.11,2.346,0.743
							c0.443,0.854,0.11,1.904-0.744,2.346c-4.145,2.151-8.363,4.238-12.536,6.202C574.151,739.787,573.898,739.84,573.65,739.84z
							 M346.528,736.743c-0.281,0-0.566-0.068-0.831-0.212c-4.022-2.191-8.109-4.534-12.149-6.964
							c-0.823-0.495-1.09-1.565-0.594-2.389c0.496-0.824,1.566-1.088,2.389-0.594c3.997,2.404,8.041,4.722,12.019,6.889
							c0.844,0.46,1.156,1.517,0.696,2.362C347.743,736.414,347.145,736.743,346.528,736.743z M598.365,727.037
							c-0.607,0-1.196-0.317-1.516-0.884c-0.474-0.836-0.178-1.898,0.658-2.372c3.979-2.25,7.998-4.615,11.948-7.031
							c0.82-0.499,1.892-0.245,2.393,0.577c0.502,0.82,0.243,1.892-0.577,2.392c-3.982,2.437-8.037,4.822-12.05,7.092
							C598.95,726.964,598.657,727.037,598.365,727.037z M322.656,722.399c-0.328,0-0.66-0.092-0.954-0.285
							c-3.823-2.511-7.709-5.167-11.552-7.895c-0.784-0.556-0.968-1.644-0.412-2.427c0.556-0.785,1.644-0.969,2.427-0.411
							c3.809,2.703,7.66,5.336,11.447,7.822c0.804,0.528,1.028,1.607,0.5,2.411C323.779,722.122,323.223,722.399,322.656,722.399z
							 M622.123,712.522c-0.567,0-1.122-0.277-1.456-0.786c-0.528-0.803-0.304-1.882,0.5-2.41c3.808-2.501,7.67-5.122,11.478-7.792
							c0.786-0.552,1.872-0.36,2.425,0.426c0.552,0.788,0.36,1.874-0.426,2.425c-3.838,2.689-7.729,5.331-11.566,7.851
							C622.783,712.43,622.452,712.522,622.123,712.522z M299.939,706.287c-0.368,0-0.738-0.115-1.053-0.356
							c-3.633-2.765-7.33-5.672-10.99-8.639c-0.747-0.605-0.862-1.701-0.256-2.448c0.604-0.748,1.701-0.863,2.448-0.256
							c3.634,2.945,7.303,5.829,10.908,8.573c0.765,0.583,0.913,1.674,0.33,2.439C300.983,706.05,300.464,706.287,299.939,706.287z
							 M644.934,696.538c-0.531,0-1.055-0.243-1.398-0.701c-0.575-0.771-0.415-1.862,0.356-2.437
							c3.687-2.747,7.393-5.59,11.014-8.449c0.756-0.595,1.849-0.467,2.446,0.288c0.595,0.755,0.467,1.85-0.288,2.446
							c-3.647,2.879-7.379,5.741-11.091,8.508C645.66,696.425,645.295,696.538,644.934,696.538z M278.299,688.76
							c-0.402,0-0.805-0.138-1.134-0.419c-3.531-3.032-7.058-6.142-10.48-9.246c-0.712-0.646-0.766-1.748-0.12-2.46
							c0.647-0.711,1.748-0.767,2.46-0.12c3.399,3.083,6.901,6.172,10.409,9.183c0.729,0.627,0.813,1.726,0.187,2.455
							C279.277,688.554,278.789,688.76,278.299,688.76z M666.81,679.283c-0.499,0-0.995-0.213-1.339-0.627
							c-0.615-0.739-0.515-1.837,0.223-2.452c3.537-2.945,7.091-5.982,10.561-9.025c0.724-0.636,1.824-0.561,2.457,0.161
							c0.634,0.723,0.561,1.824-0.161,2.457c-3.493,3.062-7.069,6.118-10.629,9.082C667.598,679.15,667.202,679.283,666.81,679.283z
							 M257.669,670.049c-0.433,0-0.868-0.161-1.205-0.484c-3.353-3.216-6.703-6.517-9.954-9.812
							c-0.675-0.685-0.667-1.786,0.017-2.461c0.684-0.677,1.786-0.668,2.462,0.016c3.229,3.272,6.554,6.55,9.885,9.744
							c0.694,0.666,0.717,1.768,0.052,2.462C258.584,669.87,258.127,670.049,257.669,670.049z M687.772,660.912
							c-0.469,0-0.937-0.189-1.281-0.562c-0.652-0.707-0.605-1.809,0.102-2.459c3.143-2.893,6.314-5.879,9.426-8.875l0.674-0.649
							c0.688-0.67,1.79-0.653,2.462,0.039c0.669,0.69,0.652,1.792-0.039,2.462l-0.685,0.659c-3.129,3.012-6.32,6.015-9.482,8.925
							C688.616,660.76,688.193,660.912,687.772,660.912z M238.109,650.222c-0.466,0-0.931-0.186-1.274-0.553
							c-3.162-3.389-6.321-6.873-9.389-10.354c-0.636-0.721-0.566-1.82,0.155-2.456c0.721-0.637,1.821-0.567,2.457,0.154
							c3.046,3.458,6.183,6.916,9.322,10.281c0.656,0.703,0.618,1.804-0.085,2.46C238.96,650.067,238.534,650.222,238.109,650.222z
							 M707.833,641.589c-0.444,0-0.888-0.169-1.229-0.508c-0.681-0.678-0.683-1.781-0.004-2.462
							c3.294-3.308,6.559-6.654,9.699-9.943c0.666-0.696,1.766-0.721,2.462-0.057c0.694,0.664,0.721,1.766,0.056,2.462
							c-3.158,3.306-6.439,6.669-9.751,9.995C708.725,641.418,708.279,641.589,707.833,641.589z M219.696,629.328
							c-0.499,0-0.995-0.213-1.339-0.627c-2.963-3.561-5.918-7.219-8.783-10.873c-0.593-0.757-0.461-1.851,0.296-2.445
							c0.756-0.593,1.851-0.46,2.444,0.296c2.843,3.628,5.777,7.26,8.718,10.794c0.615,0.74,0.514,1.837-0.224,2.453
							C220.483,629.196,220.088,629.328,219.696,629.328z M727.066,621.444c-0.42,0-0.84-0.151-1.174-0.456
							c-0.71-0.648-0.759-1.75-0.111-2.46c3.124-3.42,6.235-6.907,9.245-10.362c0.632-0.725,1.731-0.801,2.456-0.169
							c0.725,0.631,0.8,1.731,0.169,2.456c-3.028,3.476-6.156,6.983-9.299,10.424C728.008,621.253,727.537,621.444,727.066,621.444z
							 M202.513,607.41c-0.534,0-1.06-0.245-1.402-0.708c-2.751-3.726-5.486-7.551-8.131-11.368
							c-0.547-0.79-0.351-1.874,0.439-2.422c0.792-0.548,1.874-0.351,2.423,0.439c2.625,3.788,5.34,7.584,8.071,11.284
							c0.571,0.773,0.406,1.863-0.368,2.435C203.234,607.299,202.872,607.41,202.513,607.41z M745.352,600.437
							c-0.391,0-0.784-0.132-1.108-0.4c-0.741-0.613-0.844-1.71-0.231-2.45c2.974-3.593,5.904-7.23,8.71-10.808
							c0.594-0.756,1.689-0.888,2.445-0.296c0.756,0.594,0.889,1.687,0.296,2.445c-2.825,3.602-5.776,7.263-8.769,10.878
							C746.35,600.221,745.853,600.437,745.352,600.437z M186.653,584.521c-0.57,0-1.128-0.279-1.462-0.793
							c-2.533-3.903-5.034-7.886-7.432-11.838c-0.498-0.823-0.236-1.893,0.586-2.391c0.821-0.5,1.892-0.237,2.392,0.585
							c2.379,3.923,4.86,7.876,7.375,11.75c0.524,0.806,0.294,1.884-0.512,2.407C187.307,584.43,186.978,584.521,186.653,584.521z
							 M762.536,578.516c-0.361,0-0.723-0.111-1.035-0.341c-0.773-0.572-0.935-1.663-0.364-2.436
							c2.765-3.737,5.487-7.529,8.089-11.274c0.547-0.79,1.631-0.985,2.423-0.435c0.789,0.548,0.984,1.633,0.435,2.423
							c-2.621,3.772-5.363,7.592-8.148,11.357C763.594,578.272,763.068,578.516,762.536,578.516z M463,571.286
							c-0.91,0-1.676-0.707-1.736-1.629c-0.061-0.959,0.665-1.787,1.625-1.849c4.461-0.289,9.032-0.875,13.588-1.743
							c0.938-0.175,1.855,0.438,2.035,1.385c0.18,0.944-0.44,1.855-1.385,2.035c-4.696,0.895-9.41,1.499-14.013,1.797
							C463.075,571.285,463.038,571.286,463,571.286z M449.085,571.24c-0.043,0-0.086-0.001-0.13-0.004
							c-4.664-0.346-9.376-1.03-14.005-2.036c-0.939-0.204-1.535-1.131-1.331-2.071c0.204-0.938,1.132-1.536,2.07-1.332
							c4.471,0.971,9.021,1.632,13.524,1.965c0.959,0.071,1.678,0.905,1.607,1.864C450.752,570.544,449.988,571.24,449.085,571.24z
							 M490.306,566.153c-0.745,0-1.435-0.482-1.664-1.232c-0.281-0.919,0.237-1.893,1.156-2.174
							c4.231-1.294,8.591-2.854,12.956-4.637c0.891-0.367,1.907,0.065,2.27,0.953c0.364,0.891-0.063,1.906-0.953,2.27
							c-4.463,1.822-8.923,3.418-13.255,4.743C490.647,566.129,490.475,566.153,490.306,566.153z M421.96,565.383
							c-0.197,0-0.397-0.033-0.592-0.104c-4.368-1.58-8.728-3.477-12.96-5.637c-0.856-0.438-1.196-1.486-0.759-2.342
							c0.437-0.858,1.485-1.195,2.342-0.759c4.103,2.094,8.33,3.934,12.562,5.465c0.905,0.327,1.372,1.325,1.045,2.229
							C423.34,564.944,422.672,565.383,421.96,565.383z M172.215,560.709c-0.607,0-1.197-0.318-1.517-0.885
							c-2.287-4.049-4.535-8.18-6.681-12.279c-0.446-0.853-0.118-1.904,0.734-2.351c0.853-0.445,1.904-0.117,2.35,0.735
							c2.13,4.068,4.361,8.167,6.629,12.184c0.473,0.836,0.177,1.899-0.66,2.371C172.798,560.637,172.505,560.709,172.215,560.709z
							 M516.095,555.716c-0.64,0-1.257-0.355-1.561-0.967c-0.427-0.861-0.076-1.906,0.785-2.333
							c3.939-1.954,8.042-4.146,12.194-6.515c0.834-0.475,1.898-0.186,2.375,0.649c0.477,0.835,0.186,1.899-0.649,2.375
							c-4.212,2.402-8.374,4.625-12.371,6.61C516.619,555.658,516.356,555.716,516.095,555.716z M778.426,555.642
							c-0.325,0-0.654-0.091-0.948-0.281c-0.806-0.524-1.035-1.602-0.511-2.409c2.522-3.882,4.999-7.836,7.364-11.752
							c0.499-0.824,1.569-1.087,2.39-0.591c0.823,0.498,1.087,1.567,0.591,2.39c-2.386,3.949-4.884,7.935-7.426,11.849
							C779.554,555.363,778.995,555.642,778.426,555.642z M397.19,552.781c-0.332,0-0.668-0.094-0.964-0.292
							c-3.861-2.575-7.661-5.424-11.295-8.466c-0.737-0.618-0.834-1.716-0.217-2.453c0.618-0.738,1.715-0.833,2.453-0.217
							c3.537,2.962,7.235,5.735,10.99,8.24c0.8,0.533,1.016,1.614,0.483,2.414C398.304,552.509,397.752,552.781,397.19,552.781z
							 M540.319,541.987c-0.579,0-1.145-0.289-1.476-0.815c-0.511-0.815-0.265-1.889,0.549-2.401
							c3.665-2.301,7.47-4.775,11.634-7.565c0.797-0.536,1.879-0.322,2.415,0.477c0.535,0.799,0.322,1.88-0.477,2.415
							c-4.192,2.81-8.027,5.303-11.72,7.622C540.956,541.901,540.635,541.987,540.319,541.987z M159.298,536.039
							c-0.648,0-1.268-0.361-1.569-0.984c-2.025-4.19-4.003-8.458-5.878-12.686c-0.389-0.879,0.007-1.907,0.885-2.297
							c0.878-0.393,1.907,0.006,2.297,0.885c1.861,4.194,3.822,8.427,5.83,12.585c0.418,0.866,0.056,1.906-0.81,2.324
							C159.81,535.984,159.552,536.039,159.298,536.039z M375.848,534.944c-0.454,0-0.907-0.177-1.249-0.528
							c-3.245-3.343-6.379-6.904-9.311-10.589c-0.599-0.752-0.475-1.847,0.278-2.446c0.751-0.599,1.847-0.475,2.446,0.278
							c2.861,3.595,5.918,7.071,9.085,10.331c0.67,0.689,0.653,1.792-0.036,2.462C376.723,534.781,376.285,534.944,375.848,534.944z
							 M792.81,531.799c-0.286,0-0.578-0.07-0.846-0.22c-0.84-0.468-1.141-1.529-0.673-2.369c2.259-4.052,4.456-8.166,6.528-12.228
							c0.436-0.856,1.488-1.195,2.342-0.759c0.857,0.437,1.197,1.486,0.759,2.342c-2.092,4.099-4.309,8.252-6.587,12.341
							C794.014,531.477,793.422,531.799,792.81,531.799z M563.495,526.534c-0.551,0-1.093-0.261-1.431-0.748
							c-0.548-0.79-0.353-1.875,0.438-2.422c4.241-2.944,7.96-5.561,11.368-8c0.782-0.56,1.869-0.379,2.429,0.402
							c0.56,0.782,0.379,1.869-0.403,2.429c-3.423,2.449-7.154,5.075-11.408,8.029C564.184,526.433,563.838,526.534,563.495,526.534
							z M358.514,513.181c-0.57,0-1.128-0.279-1.462-0.793c-2.551-3.932-4.94-8.029-7.096-12.175
							c-0.444-0.853-0.112-1.904,0.741-2.348c0.851-0.443,1.904-0.111,2.347,0.741c2.106,4.049,4.437,8.048,6.928,11.886
							c0.523,0.807,0.294,1.885-0.512,2.409C359.168,513.091,358.839,513.181,358.514,513.181z M148.009,510.583
							c-0.689,0-1.341-0.411-1.615-1.09c-1.747-4.324-3.436-8.716-5.02-13.053c-0.33-0.903,0.135-1.902,1.038-2.233
							c0.904-0.329,1.904,0.135,2.233,1.038c1.57,4.301,3.245,8.656,4.977,12.943c0.36,0.891-0.07,1.906-0.962,2.266
							C148.447,510.542,148.226,510.583,148.009,510.583z M586.127,510.299c-0.529,0-1.052-0.24-1.394-0.697
							c-0.577-0.77-0.42-1.861,0.349-2.437c3.915-2.935,7.506-5.711,10.979-8.485c0.752-0.598,1.847-0.477,2.447,0.273
							c0.6,0.751,0.477,1.846-0.273,2.447c-3.501,2.797-7.121,5.594-11.065,8.551C586.857,510.186,586.491,510.299,586.127,510.299z
							 M805.463,506.993c-0.245,0-0.494-0.052-0.73-0.161c-0.873-0.404-1.253-1.439-0.849-2.312
							c1.944-4.196,3.819-8.465,5.573-12.686c0.368-0.887,1.387-1.309,2.274-0.94c0.889,0.369,1.31,1.388,0.94,2.276
							c-1.772,4.264-3.664,8.575-5.627,12.813C806.749,506.619,806.12,506.993,805.463,506.993z M607.863,492.879
							c-0.487,0-0.972-0.204-1.317-0.601c-0.629-0.726-0.551-1.826,0.176-2.456c3.589-3.111,7.035-6.245,10.241-9.315
							c0.692-0.666,1.797-0.643,2.461,0.053c0.666,0.695,0.642,1.796-0.053,2.462c-3.247,3.11-6.736,6.283-10.368,9.431
							C608.672,492.738,608.267,492.879,607.863,492.879z M345.686,488.503c-0.69,0-1.343-0.413-1.616-1.093
							c-1.758-4.381-3.301-8.865-4.587-13.329c-0.266-0.924,0.267-1.888,1.191-2.154c0.925-0.268,1.888,0.267,2.155,1.191
							c1.253,4.351,2.758,8.723,4.472,12.995c0.358,0.892-0.075,1.906-0.967,2.264C346.121,488.463,345.902,488.503,345.686,488.503
							z M138.458,484.423c-0.733,0-1.414-0.466-1.654-1.201c-1.446-4.428-2.829-8.927-4.109-13.371
							c-0.267-0.924,0.267-1.889,1.191-2.155c0.924-0.267,1.889,0.267,2.155,1.191c1.27,4.406,2.64,8.865,4.073,13.254
							c0.299,0.914-0.201,1.897-1.114,2.195C138.82,484.395,138.637,484.423,138.458,484.423z M514.15,484.094
							c-0.717,0-1.389-0.447-1.641-1.162c-1.276-3.615-2.48-7.271-3.577-10.868c-0.281-0.919,0.237-1.892,1.157-2.172
							c0.916-0.28,1.892,0.236,2.173,1.157c1.083,3.548,2.27,7.157,3.53,10.724c0.321,0.907-0.155,1.901-1.062,2.221
							C514.538,484.062,514.343,484.094,514.15,484.094z M816.14,481.278c-0.2,0-0.402-0.035-0.601-0.108
							c-0.902-0.332-1.364-1.332-1.034-2.234c1.596-4.34,3.108-8.747,4.497-13.098c0.291-0.916,1.268-1.423,2.187-1.129
							c0.916,0.293,1.421,1.272,1.129,2.188c-1.403,4.399-2.933,8.853-4.545,13.24C817.515,480.841,816.848,481.278,816.14,481.278z
							 M627.942,473.582c-0.424,0-0.848-0.153-1.182-0.463c-0.706-0.653-0.748-1.754-0.095-2.46
							c3.195-3.452,6.23-6.966,9.021-10.447c0.599-0.75,1.694-0.871,2.447-0.269c0.75,0.601,0.87,1.697,0.268,2.447
							c-2.841,3.544-5.93,7.122-9.182,10.635C628.877,473.395,628.41,473.582,627.942,473.582z M337.998,461.785
							c-0.824,0-1.557-0.588-1.711-1.428c-0.835-4.566-1.486-9.255-1.935-13.937c-0.092-0.957,0.61-1.807,1.567-1.899
							c0.954-0.086,1.808,0.61,1.899,1.567c0.439,4.583,1.077,9.173,1.894,13.642c0.173,0.946-0.453,1.852-1.399,2.026
							C338.207,461.775,338.102,461.785,337.998,461.785z M506.903,459.87c-0.784,0-1.496-0.533-1.69-1.329
							c-1.124-4.6-2.104-9.219-2.915-13.727c-0.17-0.946,0.459-1.851,1.406-2.021c0.95-0.173,1.851,0.459,2.022,1.406
							c0.797,4.438,1.762,8.985,2.87,13.516c0.228,0.934-0.344,1.876-1.278,2.104C507.179,459.854,507.039,459.87,506.903,459.87z
							 M130.752,457.66c-0.781,0-1.491-0.529-1.688-1.321c-1.121-4.502-2.175-9.089-3.132-13.635
							c-0.198-0.941,0.404-1.864,1.345-2.062c0.937-0.2,1.864,0.404,2.062,1.345c0.949,4.505,1.992,9.051,3.103,13.512
							c0.232,0.933-0.335,1.877-1.269,2.11C131.032,457.643,130.891,457.66,130.752,457.66z M824.592,454.749
							c-0.15,0-0.3-0.019-0.451-0.06c-0.93-0.249-1.48-1.203-1.232-2.132c1.19-4.441,2.284-8.966,3.252-13.452
							c0.203-0.939,1.13-1.534,2.069-1.334c0.939,0.203,1.537,1.129,1.334,2.069c-0.979,4.541-2.087,9.123-3.29,13.619
							C826.064,454.236,825.36,454.749,824.592,454.749z M645.302,451.836c-0.335,0-0.673-0.097-0.972-0.298
							c-0.797-0.538-1.008-1.62-0.469-2.416c2.602-3.86,5.012-7.81,7.159-11.741c0.461-0.844,1.519-1.153,2.363-0.693
							c0.843,0.462,1.154,1.519,0.693,2.363c-2.2,4.025-4.666,8.068-7.33,12.018C646.41,451.567,645.86,451.836,645.302,451.836z
							 M335.327,434.092c-0.95,0-1.727-0.764-1.74-1.717c-0.011-0.829-0.017-1.659-0.017-2.489c0-3.806,0.124-7.696,0.368-11.563
							c0.061-0.959,0.887-1.679,1.848-1.627c0.959,0.061,1.688,0.888,1.627,1.847c-0.24,3.794-0.361,7.611-0.361,11.344
							c0,0.814,0.006,1.627,0.017,2.441c0.013,0.961-0.755,1.751-1.717,1.765C335.343,434.092,335.335,434.092,335.327,434.092z
							 M502.009,432.467c-0.876,0-1.631-0.66-1.729-1.551c-0.518-4.729-0.858-9.445-1.007-14.02
							c-0.032-0.961,0.722-1.766,1.683-1.797c0.951-0.041,1.765,0.722,1.796,1.682c0.148,4.487,0.481,9.114,0.99,13.755
							c0.104,0.956-0.585,1.816-1.541,1.921C502.137,432.464,502.073,432.467,502.009,432.467z M125.015,430.409
							c-0.831,0-1.567-0.597-1.713-1.444c-0.79-4.571-1.506-9.224-2.128-13.828c-0.129-0.953,0.539-1.83,1.491-1.959
							c0.958-0.125,1.831,0.54,1.959,1.492c0.617,4.562,1.327,9.172,2.108,13.702c0.164,0.947-0.471,1.849-1.419,2.012
							C125.213,430.401,125.113,430.409,125.015,430.409z M830.465,427.533c-0.094,0-0.189-0.008-0.285-0.023
							c-0.949-0.156-1.591-1.053-1.435-2.001c0.746-4.522,1.391-9.134,1.916-13.707c0.11-0.956,0.992-1.639,1.928-1.53
							c0.956,0.11,1.641,0.973,1.531,1.929c-0.533,4.629-1.184,9.297-1.939,13.876C832.04,426.928,831.301,427.533,830.465,427.533z
							 M658.607,427.43c-0.223,0-0.45-0.043-0.668-0.135c-0.888-0.37-1.307-1.389-0.938-2.276c1.728-4.14,3.205-8.5,4.394-12.958
							c0.247-0.93,1.199-1.484,2.131-1.234c0.928,0.248,1.481,1.201,1.233,2.13c-1.229,4.609-2.758,9.118-4.544,13.401
							C659.936,427.027,659.289,427.43,658.607,427.43z M337.06,406.318c-0.078,0-0.157-0.005-0.237-0.016
							c-0.953-0.129-1.619-1.007-1.49-1.959c0.62-4.561,1.416-9.218,2.365-13.843c0.194-0.941,1.113-1.546,2.055-1.355
							c0.942,0.194,1.548,1.114,1.355,2.056c-0.933,4.548-1.716,9.128-2.325,13.612C338.664,405.685,337.917,406.318,337.06,406.318
							z M501.142,404.659c-0.03,0-0.061,0-0.093-0.002c-0.96-0.051-1.698-0.87-1.647-1.83c0.252-4.76,0.726-9.476,1.407-14.018
							c0.143-0.951,1.03-1.604,1.98-1.463c0.951,0.143,1.606,1.029,1.463,1.98c-0.665,4.432-1.126,9.036-1.372,13.684
							C502.831,403.939,502.061,404.659,501.142,404.659z M121.281,402.811c-0.885,0-1.642-0.671-1.73-1.57
							c-0.455-4.618-0.829-9.31-1.114-13.946c-0.059-0.96,0.671-1.785,1.631-1.844c0.972-0.058,1.785,0.671,1.844,1.631
							c0.282,4.594,0.653,9.243,1.103,13.818c0.094,0.957-0.605,1.809-1.562,1.903C121.396,402.809,121.338,402.811,121.281,402.811
							z M665.806,400.601c-0.078,0-0.156-0.005-0.236-0.016c-0.953-0.129-1.621-1.005-1.492-1.959
							c0.61-4.509,0.945-9.108,0.996-13.668c0.011-0.961,0.823-1.702,1.76-1.721c0.962,0.011,1.732,0.799,1.722,1.761
							c-0.054,4.703-0.399,9.445-1.028,14.095C667.411,399.967,666.664,400.601,665.806,400.601z M833.635,399.871
							c-0.039,0-0.076-0.001-0.115-0.003c-0.959-0.062-1.686-0.89-1.625-1.85c0.297-4.598,0.479-9.25,0.542-13.827
							c0.013-0.961,0.854-1.718,1.764-1.717c0.961,0.013,1.73,0.803,1.717,1.765c-0.064,4.636-0.248,9.347-0.548,14.003
							C835.31,399.164,834.545,399.871,833.635,399.871z M342.634,379.044c-0.151,0-0.304-0.02-0.457-0.061
							c-0.928-0.252-1.476-1.208-1.224-2.137c1.206-4.444,2.576-8.961,4.071-13.426c0.305-0.911,1.289-1.401,2.204-1.097
							c0.911,0.305,1.403,1.292,1.098,2.204c-1.473,4.401-2.824,8.852-4.012,13.232C344.102,378.533,343.4,379.044,342.634,379.044z
							 M505.314,377.17c-0.145,0-0.294-0.018-0.441-0.057c-0.931-0.243-1.487-1.194-1.245-2.124
							c1.198-4.595,2.658-9.116,4.337-13.437c0.349-0.898,1.36-1.339,2.254-0.992c0.896,0.348,1.34,1.357,0.992,2.253
							c-1.632,4.196-3.05,8.588-4.215,13.054C506.793,376.652,506.087,377.17,505.314,377.17z M119.577,375.016
							c-0.942,0-1.716-0.751-1.74-1.698c-0.076-3.08-0.115-6.212-0.115-9.308c0-1.561,0.01-3.122,0.029-4.682
							c0.012-0.961,0.819-1.701,1.762-1.719c0.962,0.012,1.731,0.802,1.719,1.763c-0.019,1.546-0.029,3.093-0.029,4.639
							c0,3.068,0.038,6.171,0.114,9.222c0.024,0.961-0.736,1.76-1.697,1.784C119.606,375.016,119.591,375.016,119.577,375.016z
							 M666.096,372.818c-0.871,0-1.624-0.654-1.727-1.542c-0.53-4.586-1.359-9.116-2.466-13.464
							c-0.238-0.931,0.325-1.879,1.257-2.117c0.934-0.239,1.879,0.327,2.116,1.258c1.147,4.499,2.005,9.183,2.553,13.924
							c0.11,0.955-0.575,1.819-1.53,1.929C666.23,372.813,666.163,372.818,666.096,372.818z M834.01,372.03
							c-0.93,0-1.702-0.737-1.739-1.675c-0.176-4.612-0.475-9.257-0.891-13.806c-0.087-0.957,0.619-1.804,1.575-1.892
							c0.958-0.096,1.805,0.617,1.893,1.575c0.421,4.611,0.724,9.318,0.902,13.99c0.036,0.961-0.713,1.769-1.674,1.806
							C834.055,372.03,834.033,372.03,834.01,372.03z M351.459,352.635c-0.214,0-0.431-0.04-0.642-0.123
							c-0.894-0.355-1.331-1.367-0.976-2.26c1.698-4.281,3.55-8.619,5.502-12.891c0.399-0.875,1.431-1.261,2.307-0.86
							c0.874,0.4,1.259,1.432,0.86,2.307c-1.929,4.218-3.756,8.501-5.432,12.728C352.807,352.218,352.152,352.635,351.459,352.635z
							 M515.422,351.289c-0.283,0-0.57-0.069-0.835-0.215c-0.843-0.462-1.153-1.52-0.69-2.363c2.237-4.081,4.844-8.075,7.749-11.873
							c0.584-0.764,1.678-0.91,2.44-0.325c0.764,0.584,0.909,1.677,0.325,2.44c-2.798,3.659-5.309,7.505-7.461,11.432
							C516.633,350.962,516.036,351.289,515.422,351.289z M119.926,347.171c-0.03,0-0.059-0.001-0.089-0.002
							c-0.96-0.048-1.7-0.865-1.652-1.826c0.232-4.651,0.555-9.347,0.959-13.958c0.084-0.957,0.92-1.669,1.887-1.582
							c0.957,0.084,1.666,0.929,1.582,1.887c-0.401,4.568-0.721,9.22-0.951,13.827C121.616,346.448,120.847,347.171,119.926,347.171
							z M659.183,345.921c-0.68,0-1.326-0.401-1.606-1.067c-1.794-4.272-3.91-8.337-6.288-12.084
							c-0.515-0.811-0.274-1.887,0.537-2.403c0.81-0.514,1.886-0.275,2.403,0.537c2.482,3.91,4.689,8.15,6.558,12.601
							c0.373,0.886-0.044,1.907-0.931,2.279C659.637,345.877,659.408,345.921,659.183,345.921z M831.467,344.301
							c-0.849,0-1.592-0.622-1.721-1.487c-0.673-4.581-1.48-9.163-2.397-13.619c-0.195-0.941,0.411-1.862,1.353-2.056
							c0.941-0.192,1.863,0.412,2.056,1.354c0.931,4.521,1.75,9.168,2.433,13.815c0.14,0.951-0.518,1.836-1.47,1.975
							C831.637,344.296,831.551,344.301,831.467,344.301z M532.251,329.212c-0.451,0-0.901-0.174-1.242-0.521
							c-0.673-0.686-0.663-1.788,0.023-2.462c3.352-3.292,6.971-6.387,10.759-9.201c0.771-0.573,1.862-0.413,2.436,0.359
							c0.574,0.772,0.413,1.862-0.359,2.435c-3.66,2.719-7.157,5.71-10.396,8.891C533.132,329.046,532.691,329.212,532.251,329.212z
							 M363.021,327.304c-0.269,0-0.542-0.063-0.798-0.195c-0.854-0.441-1.188-1.491-0.747-2.345
							c2.122-4.106,4.383-8.241,6.717-12.291c0.481-0.832,1.546-1.117,2.378-0.638c0.833,0.48,1.119,1.545,0.638,2.378
							c-2.309,4.003-4.543,8.091-6.641,12.15C364.26,326.96,363.651,327.304,363.021,327.304z M644.253,322.582
							c-0.463,0-0.926-0.184-1.268-0.549c-3.125-3.322-6.568-6.305-10.232-8.864c-0.789-0.55-0.981-1.636-0.431-2.424
							c0.549-0.79,1.638-0.982,2.423-0.431c3.861,2.696,7.487,5.837,10.776,9.334c0.658,0.7,0.625,1.802-0.076,2.46
							C645.11,322.425,644.682,322.582,644.253,322.582z M122.363,319.432c-0.073,0-0.146-0.005-0.22-0.014
							c-0.954-0.121-1.63-0.992-1.509-1.945c0.585-4.617,1.265-9.276,2.023-13.846c0.158-0.948,1.057-1.587,2.003-1.432
							c0.948,0.158,1.589,1.054,1.432,2.003c-0.751,4.526-1.425,9.14-2.003,13.712C123.977,318.79,123.227,319.432,122.363,319.432z
							 M825.85,317.032c-0.769,0-1.473-0.513-1.681-1.291c-1.194-4.459-2.533-8.911-3.981-13.233
							c-0.305-0.912,0.187-1.899,1.098-2.203c0.917-0.305,1.899,0.187,2.204,1.098c1.469,4.389,2.829,8.91,4.042,13.438
							c0.248,0.929-0.303,1.884-1.232,2.132C826.15,317.013,826,317.032,825.85,317.032z M554.544,312.656
							c-0.615,0-1.213-0.327-1.529-0.906c-0.462-0.843-0.151-1.901,0.692-2.363c4.187-2.287,8.523-4.266,12.89-5.88
							c0.903-0.333,1.904,0.127,2.237,1.029c0.333,0.901-0.128,1.903-1.029,2.236c-4.209,1.556-8.39,3.463-12.427,5.671
							C555.114,312.588,554.827,312.656,554.544,312.656z M621.579,306.77c-0.224,0-0.453-0.044-0.673-0.137
							c-4.138-1.739-8.5-3.044-12.962-3.877c-0.945-0.177-1.569-1.086-1.392-2.031c0.177-0.946,1.093-1.564,2.031-1.392
							c4.706,0.879,9.306,2.255,13.672,4.09c0.886,0.372,1.303,1.393,0.93,2.279C622.905,306.369,622.259,306.77,621.579,306.77z
							 M580.584,303.1c-0.815,0-1.542-0.576-1.706-1.406c-0.186-0.944,0.428-1.858,1.372-2.043c4.732-0.93,9.488-1.436,14.135-1.504
							c0.009,0,0.018,0,0.026,0c0.95,0,1.726,0.763,1.741,1.715c0.014,0.961-0.754,1.752-1.715,1.766
							c-4.44,0.065-8.988,0.55-13.515,1.439C580.808,303.089,580.695,303.1,580.584,303.1z M378.423,302.325l-1.499-0.888
							l-1.456-0.954c2.502-3.924,5.107-7.826,7.759-11.627c0.55-0.788,1.636-0.98,2.424-0.431c0.788,0.55,0.981,1.635,0.431,2.423
							C383.457,294.61,380.88,298.471,378.423,302.325z M126.926,291.964c-0.117,0-0.235-0.012-0.354-0.036
							c-0.941-0.195-1.547-1.116-1.352-2.057c0.942-4.556,1.987-9.148,3.106-13.646c0.232-0.932,1.174-1.502,2.11-1.269
							c0.933,0.232,1.501,1.176,1.269,2.11c-1.108,4.453-2.143,8.999-3.075,13.51C128.459,291.398,127.734,291.964,126.926,291.964z
							 M817.005,290.639c-0.688,0-1.339-0.409-1.614-1.085c-1.74-4.274-3.633-8.517-5.624-12.611
							c-0.42-0.865-0.061-1.907,0.804-2.327c0.861-0.42,1.906-0.062,2.327,0.804c2.026,4.163,3.95,8.476,5.719,12.821
							c0.363,0.891-0.066,1.906-0.957,2.269C817.446,290.598,817.223,290.639,817.005,290.639z M392.858,280.341
							c-0.368,0-0.738-0.117-1.053-0.356c-0.765-0.583-0.913-1.675-0.33-2.44c2.821-3.703,5.752-7.389,8.713-10.957
							c0.614-0.74,1.71-0.843,2.451-0.228c0.74,0.614,0.842,1.711,0.228,2.452c-2.93,3.531-5.831,7.179-8.623,10.844
							C393.902,280.104,393.383,280.341,392.858,280.341z M804.821,265.62c-0.603,0-1.189-0.314-1.511-0.875
							c-2.288-3.985-4.738-7.928-7.284-11.717c-0.536-0.798-0.324-1.88,0.475-2.416c0.795-0.535,1.879-0.324,2.415,0.475
							c2.591,3.857,5.086,7.869,7.413,11.924c0.478,0.834,0.19,1.898-0.643,2.377C805.414,265.545,805.116,265.62,804.821,265.62z
							 M133.651,264.944c-0.161,0-0.326-0.023-0.489-0.071c-0.923-0.27-1.452-1.237-1.183-2.159
							c1.308-4.472,2.723-8.964,4.206-13.351c0.308-0.911,1.291-1.402,2.207-1.091c0.911,0.308,1.4,1.295,1.091,2.207
							c-1.467,4.341-2.868,8.787-4.162,13.213C135.098,264.451,134.404,264.944,133.651,264.944z M410.643,258.91
							c-0.416,0-0.834-0.148-1.166-0.449c-0.713-0.645-0.77-1.746-0.125-2.459c3.125-3.458,6.355-6.886,9.601-10.189
							c0.674-0.687,1.777-0.695,2.462-0.022c0.686,0.674,0.695,1.776,0.022,2.462c-3.212,3.268-6.409,6.66-9.5,10.083
							C411.592,258.717,411.118,258.91,410.643,258.91z M789.295,242.524c-0.517,0-1.029-0.229-1.372-0.668
							c-2.813-3.596-5.806-7.143-8.896-10.544c-0.646-0.712-0.594-1.813,0.118-2.46c0.711-0.644,1.812-0.594,2.46,0.118
							c3.146,3.463,6.195,7.077,9.061,10.74c0.591,0.757,0.459,1.851-0.298,2.443C790.049,242.403,789.67,242.524,789.295,242.524z
							 M430.166,239.053c-0.466,0-0.93-0.185-1.273-0.552c-0.656-0.703-0.619-1.804,0.084-2.461
							c3.408-3.182,6.919-6.322,10.436-9.333c0.73-0.624,1.829-0.541,2.455,0.19c0.625,0.731,0.54,1.83-0.191,2.455
							c-3.479,2.978-6.952,6.084-10.324,9.233C431.019,238.898,430.592,239.053,430.166,239.053z M142.569,238.566
							c-0.208,0-0.42-0.038-0.626-0.117c-0.897-0.346-1.344-1.353-0.998-2.251c1.676-4.347,3.465-8.705,5.316-12.952
							c0.384-0.881,1.412-1.284,2.291-0.9c0.882,0.384,1.285,1.41,0.9,2.291c-1.831,4.202-3.601,8.514-5.259,12.814
							C143.927,238.142,143.268,238.566,142.569,238.566z M770.587,221.923c-0.432,0-0.864-0.159-1.201-0.48
							c-3.296-3.142-6.768-6.225-10.319-9.164c-0.741-0.613-0.844-1.71-0.231-2.451c0.611-0.741,1.71-0.844,2.451-0.231
							c3.613,2.991,7.147,6.128,10.503,9.325c0.696,0.663,0.722,1.765,0.059,2.461C771.505,221.742,771.047,221.923,770.587,221.923
							z M451.321,220.95c-0.517,0-1.029-0.23-1.372-0.669c-0.592-0.757-0.458-1.851,0.299-2.444
							c3.674-2.873,7.449-5.692,11.221-8.377c0.783-0.558,1.871-0.375,2.427,0.408c0.558,0.783,0.375,1.87-0.408,2.428
							c-3.729,2.655-7.462,5.442-11.095,8.284C452.075,220.829,451.697,220.95,451.321,220.95z M153.696,213.041
							c-0.257,0-0.517-0.057-0.763-0.177c-0.864-0.422-1.222-1.464-0.8-2.328c2.042-4.181,4.204-8.367,6.425-12.443
							c0.461-0.844,1.518-1.156,2.362-0.696c0.844,0.46,1.155,1.518,0.696,2.362c-2.197,4.031-4.334,8.171-6.355,12.306
							C154.96,212.682,154.341,213.041,153.696,213.041z M474.006,204.805c-0.571,0-1.131-0.281-1.464-0.797
							c-0.521-0.808-0.288-1.886,0.52-2.407c3.925-2.53,7.944-4.99,11.947-7.311c0.828-0.48,1.896-0.2,2.379,0.633
							c0.482,0.832,0.198,1.897-0.633,2.38c-3.954,2.293-7.927,4.724-11.806,7.225C474.656,204.716,474.329,204.805,474.006,204.805
							z M749.152,204.176c-0.352,0-0.707-0.106-1.014-0.327c-3.706-2.663-7.566-5.248-11.474-7.682
							c-0.816-0.508-1.065-1.582-0.558-2.398c0.509-0.818,1.585-1.064,2.398-0.557c3.972,2.474,7.897,5.102,11.665,7.81
							c0.781,0.562,0.959,1.649,0.398,2.43C750.226,203.924,749.693,204.176,749.152,204.176z M498.093,190.847
							c-0.63,0-1.239-0.343-1.548-0.942c-0.441-0.854-0.107-1.904,0.748-2.346c4.145-2.142,8.385-4.201,12.603-6.121
							c0.874-0.398,1.907-0.012,2.305,0.863c0.398,0.875,0.011,1.907-0.864,2.306c-4.165,1.896-8.353,3.93-12.447,6.045
							C498.636,190.784,498.363,190.847,498.093,190.847z M725.534,189.453c-0.279,0-0.561-0.067-0.823-0.208
							c-4.019-2.159-8.179-4.229-12.368-6.155c-0.874-0.401-1.257-1.435-0.856-2.309c0.402-0.874,1.436-1.255,2.309-0.854
							c4.255,1.955,8.481,4.057,12.564,6.251c0.846,0.455,1.165,1.51,0.709,2.357C726.754,189.12,726.153,189.453,725.534,189.453z
							 M523.431,179.319c-0.694,0-1.349-0.418-1.62-1.102c-0.352-0.894,0.086-1.905,0.98-2.258
							c4.348-1.716,8.777-3.333,13.168-4.804c0.912-0.304,1.898,0.186,2.203,1.098c0.306,0.911-0.185,1.899-1.097,2.204
							c-4.332,1.452-8.704,3.048-12.995,4.741C523.861,179.28,523.644,179.319,523.431,179.319z M700.246,177.825
							c-0.21,0-0.423-0.038-0.629-0.118c-4.267-1.654-8.651-3.205-13.031-4.609c-0.916-0.293-1.42-1.273-1.126-2.189
							c0.293-0.915,1.272-1.421,2.19-1.126c4.445,1.425,8.895,2.999,13.225,4.678c0.896,0.347,1.342,1.356,0.994,2.252
							C701.601,177.402,700.943,177.825,700.246,177.825z M549.829,170.475c-0.763,0-1.463-0.506-1.676-1.278
							c-0.257-0.926,0.287-1.885,1.214-2.141c4.495-1.243,9.075-2.375,13.61-3.363c0.938-0.208,1.867,0.39,2.072,1.331
							c0.204,0.939-0.391,1.867-1.331,2.072c-4.474,0.975-8.99,2.091-13.425,3.317C550.138,170.454,549.983,170.475,549.829,170.475
							z M673.742,169.321c-0.144,0-0.289-0.018-0.435-0.055c-4.435-1.141-8.972-2.168-13.482-3.053
							c-0.943-0.185-1.559-1.101-1.372-2.044c0.186-0.944,1.099-1.565,2.043-1.372c4.577,0.898,9.18,1.94,13.68,3.098
							c0.93,0.239,1.491,1.188,1.252,2.119C675.224,168.799,674.517,169.321,673.742,169.321z M577.034,164.556
							c-0.842,0-1.582-0.612-1.717-1.47c-0.15-0.949,0.499-1.841,1.449-1.99c4.588-0.724,9.27-1.318,13.917-1.767
							c0.962-0.097,1.808,0.608,1.901,1.566c0.091,0.957-0.609,1.807-1.565,1.9c-4.578,0.442-9.191,1.027-13.711,1.739
							C577.216,164.549,577.125,164.556,577.034,164.556z M646.426,163.957c-0.079,0-0.159-0.005-0.239-0.016
							c-4.544-0.623-9.168-1.123-13.745-1.485c-0.959-0.076-1.674-0.915-1.598-1.873c0.075-0.959,0.919-1.687,1.872-1.598
							c4.644,0.367,9.336,0.874,13.945,1.506c0.952,0.131,1.619,1.009,1.488,1.962C648.029,163.325,647.283,163.957,646.426,163.957
							z M604.744,161.875c-0.932,0-1.704-0.737-1.739-1.676c-0.036-0.961,0.714-1.769,1.675-1.804
							c4.636-0.173,9.353-0.21,14.025-0.111c0.962,0.02,1.725,0.816,1.704,1.777c-0.02,0.961-0.799,1.748-1.777,1.704
							c-4.611-0.096-9.256-0.06-13.823,0.11C604.788,161.875,604.766,161.875,604.744,161.875z" class="svgShape colorf9e0d7-6"></path><path d="M480.838,354.51c-0.446,0-0.891-0.17-1.231-0.51l-21.371-21.372c-0.68-0.679-0.68-1.782,0-2.462
								c0.68-0.68,1.782-0.68,2.462,0l21.371,21.372c0.68,0.679,0.68,1.782,0,2.462C481.729,354.34,481.283,354.51,480.838,354.51z" fill="#000000" class="svgShape color000000-7"></path><path d="M459.466 354.51c-.445 0-.891-.17-1.231-.51-.68-.68-.68-1.783 0-2.462l21.371-21.372c.68-.68 1.782-.68 2.462 0 .68.68.68 1.782 0 2.462l-21.371 21.372C460.357 354.34 459.912 354.51 459.466 354.51zM821.691 163.28c-6.877 0-12.471-5.594-12.471-12.471 0-6.877 5.594-12.471 12.471-12.471 6.876 0 12.471 5.594 12.471 12.471C834.162 157.685 828.568 163.28 821.691 163.28zM821.691 141.819c-4.957 0-8.99 4.033-8.99 8.989 0 4.957 4.033 8.989 8.99 8.989 4.956 0 8.989-4.033 8.989-8.989C830.68 145.852 826.648 141.819 821.691 141.819zM584.82 850.541h-19.748c-.961 0-1.741-.78-1.741-1.741v-19.747c0-.961.78-1.74 1.741-1.74h19.748c.961 0 1.741.779 1.741 1.74V848.8C586.561 849.761 585.781 850.541 584.82 850.541zM566.814 847.059h16.266v-16.265h-16.266V847.059zM259.708 813.336c-.462 0-.905-.183-1.231-.51l-13.964-13.964c-.327-.326-.51-.77-.51-1.231 0-.462.184-.905.51-1.231l13.964-13.963c.68-.68 1.782-.68 2.462 0l13.963 13.963c.327.326.51.769.51 1.231 0 .461-.184.904-.51 1.231l-13.963 13.964C260.613 813.153 260.17 813.336 259.708 813.336zM248.207 797.631l11.502 11.503 11.502-11.503-11.502-11.502L248.207 797.631zM87.26 210.363c-.445 0-.891-.17-1.231-.51L72.066 195.89c-.326-.327-.51-.769-.51-1.231s.184-.905.51-1.231l13.964-13.964c.653-.653 1.809-.653 2.462 0l13.963 13.964c.68.68.68 1.783 0 2.462l-13.963 13.963C88.151 210.193 87.706 210.363 87.26 210.363zM75.759 194.659L87.26 206.16l11.502-11.501L87.26 183.157 75.759 194.659z" fill="#000000" class="svgShape color000000-8"></path><circle cx="669.245" cy="675.497" r="27.982" fill="#4633a7" class="svgShape colorf9e0d7-9"></circle><circle cx="781.278" cy="68.159" r="26.501" fill="#4633a7" class="svgShape color8abae7-10"></circle><circle cx="284.451" cy="721.991" r="9.083" fill="#4633a7" transform="rotate(-9.213 284.485 721.893)" class="svgShape color8abae7-11"></circle><path fill="#4633a7" d="M176.822,194.659c0-9.466-7.673-17.139-17.139-17.139c-9.465,0-17.138,7.673-17.138,17.139
							c0,9.465,7.673,17.138,17.138,17.138C169.148,211.797,176.822,204.124,176.822,194.659z" class="svgShape colorf9e0d7-12"></path><path fill="#4633a7" d="M249.766 45.633c0-8.441-6.843-15.284-15.283-15.284-8.441 0-15.283 6.843-15.283 15.284 0 8.441 6.843 15.283 15.283 15.283C242.924 60.917 249.766 54.074 249.766 45.633zM276.368 886.081c0-13.066-10.592-23.658-23.658-23.658s-23.658 10.592-23.658 23.658c0 13.066 10.592 23.658 23.658 23.658S276.368 899.148 276.368 886.081z" class="svgShape colord8e5f3-13"></path><ellipse cx="968.472" cy="248.737" fill="#4633a7" rx="25.551" ry="25.552" transform="rotate(-66.127 968.523 248.745)" class="svgShape colord8e5f3-14"></ellipse><g><circle cx="14.007" cy="523.729" r="14.007" fill="#4633a7" class="svgShape colord8e5f3-16"></circle></g><g><path fill="#4633a7" d="M576.481,388.761l27.151,76.464c0,0,67.522,52.497,78.642,75.89
									c11.12,23.393-22.197,44.299-48.927,27.963c-26.73-16.336-66.617-70.905-71.178-73.96
									c-4.561-3.055-28.619-86.643-28.619-86.643L576.481,388.761z" class="svgShape color4666c9-18"></path><polygon fill="#4633a7" points="570.218 393.127 569.725 365.175 533.549 376.165 547.698 401.978" class="svgShape color8abae7-19"></polygon><circle cx="389.51" cy="311.184" r="212.378" fill="#72fff3" stroke="#0c0d1d" stroke-miterlimit="10" stroke-width="3.264" transform="rotate(-45.001 389.508 311.19)" class="svgShape colorf9e0d7-20 svgStroke colorStroke0c0d1d-20"></circle><path fill="#4633a7" d="M327.772,420.826c4.909-34.329,12.538-61.138,22.892-80.428
										c10.347-19.285,26.839-37.386,49.472-54.293c22.628-16.907,38.113-31.086,46.451-42.538
										c8.338-11.451,13.489-24.05,15.455-37.795c5.93-41.466-8.175-64.646-42.317-69.528
										c-16.199-2.316-29.965,1.416-41.299,11.196c-11.339,9.78-18.63,24.457-21.875,44.037l-95.203-13.614
										c7.134-46.772,25.892-81.499,56.27-104.177c30.378-22.677,68.548-30.736,114.508-24.163
										c46.396,6.635,80.603,24.352,102.615,53.151c22.012,28.798,29.739,66.124,23.182,111.976
										c-2.98,20.842-9.955,39.929-20.917,57.251c-10.967,17.321-28.457,35.778-52.473,55.364l-30.642,24.521
										c-19.195,15.523-31.713,35.125-37.555,58.809l-4.522,22.251L327.772,420.826z" class="svgShape colorf57a3e-21"></path><path d="M411.815,433.84c-0.047,0-0.094-0.003-0.141-0.01l-84.042-12.018c-0.544-0.079-0.922-0.583-0.844-1.126
										c4.903-34.289,12.641-61.46,22.999-80.758c10.372-19.33,27.111-37.706,49.753-54.62
										c22.445-16.77,38.003-31.011,46.242-42.327c8.202-11.265,13.341-23.832,15.274-37.35c2.918-20.402,0.9-36.493-5.997-47.825
										c-6.858-11.269-18.794-18.192-35.476-20.578c-15.826-2.262-29.455,1.426-40.508,10.965
										c-11.105,9.578-18.353,24.196-21.543,43.446c-0.089,0.534-0.593,0.895-1.123,0.822l-95.203-13.614
										c-0.263-0.038-0.5-0.179-0.658-0.392c-0.158-0.213-0.225-0.481-0.185-0.743c7.141-46.821,26.204-82.089,56.659-104.824
										c30.459-22.738,69.233-30.932,115.244-24.352c46.449,6.643,81.192,24.653,103.265,53.532
										c22.077,28.884,29.943,66.809,23.377,112.721c-2.987,20.885-10.073,40.279-21.061,57.643
										c-10.979,17.339-28.704,36.046-52.685,55.603l-30.649,24.527c-18.929,15.308-31.45,34.914-37.21,58.27l-4.513,22.21
										C412.694,433.512,412.281,433.84,411.815,433.84z M328.899,419.982l82.126,11.744l4.335-21.33
										c5.876-23.827,18.625-43.794,37.904-59.384l30.645-24.524c23.807-19.415,41.39-37.962,52.254-55.119
										c10.837-17.124,17.826-36.255,20.773-56.86c6.488-45.364-1.247-82.787-22.987-111.23
										c-21.746-28.45-56.051-46.204-101.965-52.77c-45.473-6.502-83.751,1.564-113.772,23.976
										c-29.807,22.251-48.553,56.743-55.728,102.536l93.247,13.334c3.35-19.249,10.764-33.939,22.044-43.668
										c11.507-9.932,25.67-13.778,42.089-11.429c34.636,4.953,49.158,28.725,43.163,70.654
										c-1.98,13.843-7.241,26.709-15.636,38.24c-8.356,11.477-24.055,25.86-46.66,42.75
										c-22.407,16.738-38.957,34.895-49.19,53.966C341.391,359.777,333.776,386.389,328.899,419.982z" fill="#000000" class="svgShape color000000-22"></path><ellipse cx="348.381" cy="509.671" fill="#4633a7" rx="48.584" ry="48.583" transform="rotate(-3.139 348.548 509.955)" class="svgShape colorf57a3e-23"></ellipse><path d="M348.486,559.259c-2.363,0-4.742-0.168-7.124-0.509c-13.109-1.875-24.704-8.742-32.649-19.338
									c-7.944-10.595-11.287-23.651-9.412-36.76c1.875-13.11,8.742-24.705,19.338-32.649c10.595-7.944,23.65-11.285,36.76-9.412
									c13.11,1.875,24.705,8.742,32.649,19.338c7.944,10.595,11.287,23.65,9.412,36.76c-1.875,13.11-8.742,24.705-19.338,32.649
									C369.452,555.839,359.133,559.259,348.486,559.259z M348.281,462.074c-10.22,0-20.124,3.282-28.447,9.523
									c-10.17,7.625-16.762,18.755-18.561,31.337c-1.8,12.583,1.409,25.114,9.034,35.285c7.625,10.17,18.755,16.762,31.338,18.561
									c12.584,1.804,25.114-1.408,35.284-9.034c10.171-7.626,16.762-18.755,18.561-31.337l0,0
									c1.8-12.583-1.408-25.114-9.034-35.285c-7.625-10.171-18.755-16.762-31.338-18.561
									C352.833,462.235,350.548,462.074,348.281,462.074z" fill="#000000" class="svgShape color000000-24"></path><path fill="#fff" d="M275.983,168.283c-0.033,0-0.066-0.002-0.1-0.005c-0.547-0.055-0.946-0.542-0.892-1.089
									c0.026-0.263,2.816-26.588,20.202-53.535c10.217-15.835,23.4-28.799,39.184-38.531
									c19.709-12.153,43.54-19.264,70.831-21.137c0.547-0.034,1.024,0.377,1.06,0.925c0.038,0.548-0.376,1.024-0.924,1.061
									c-26.943,1.849-50.452,8.852-69.875,20.816c-15.526,9.564-28.498,22.306-38.557,37.873
									c-17.155,26.55-19.914,52.466-19.94,52.725C276.92,167.9,276.488,168.283,275.983,168.283z" class="svgShape colorffffff-25"></path><g><path fill="#fff" d="M340.629,412.081c-0.015,0-0.031-0.001-0.046-0.001c-0.549-0.025-0.974-0.49-0.949-1.039
									c0.008-0.165,0.826-16.75,7.002-37.445c5.709-19.128,17.295-45.805,40.073-64.267c0.426-0.346,1.053-0.281,1.4,0.147
									c0.346,0.427,0.28,1.053-0.146,1.4c-22.368,18.129-33.774,44.396-39.404,63.239c-6.116,20.471-6.928,36.855-6.936,37.017
									C341.598,411.664,341.158,412.081,340.629,412.081z" class="svgShape colorffffff-27"></path></g><g><path fill="#fff" d="M311.593,504.216c-0.063,0-0.128-0.006-0.193-0.019c-0.54-0.105-0.891-0.629-0.785-1.168
									c5.727-29.165,37.338-32.982,37.657-33.017c0.546-0.06,1.037,0.333,1.098,0.88c0.06,0.546-0.333,1.038-0.879,1.099
									c-0.304,0.034-30.48,3.708-35.922,31.422C312.475,503.887,312.059,504.216,311.593,504.216z" class="svgShape colorffffff-29"></path></g><g><path d="M633.439 969.227c-3.835 15.414-29.464 15.414-29.464 30.431l54.848 0v-26.198L633.439 969.227zM791.464 876.897c11.645 11.549-1.401 36.296 11.845 43.94l27.918-52.96-23.108-13.335L791.464 876.897z" fill="#000000" class="svgShape color000000-31"></path><path d="M592.345,646.514l34.251,326.093l39.495,3.07l-4.658-232.637c0,0,29.424,63.302,32.099,68.363
									c2.675,5.061,97.932,78.239,97.932,78.239l21.392-35.841c0,0-79.985-80.879-81.724-91.381
									c-1.739-10.502-39.131-122.573-39.131-122.573L592.345,646.514z" fill="#000000" class="svgShape color000000-32"></path><path fill="#4633a7" d="M619.854,516.259c-22.545-24.096-43.429-45.111-43.429-45.111l-36.009-90.027l-35.395,12.006
									c0,0,18.599,91.487,23.053,96.98c4.455,5.493,42.947,61.241,42.947,61.241C594.412,579.733,646.625,544.351,619.854,516.259
									L619.854,516.259z" class="svgShape color8abae7-33"></path><path fill="#4633a7" d="M576.503,625.285c-0.702,8.469,15.842,21.229,15.842,21.229l99.657-6.666
									c9.458-4.048,3.486-104.16-2.73-115.717c-3.379-6.282-45.674-14.633-83.667-20.325
									C572.65,498.868,577.204,616.816,576.503,625.285z" class="svgShape color8abae7-34"></path><path fill="#fff" d="M624.798,495.409c20.416,10.154,73.419-56.039,38.106-68.251
									C627.59,414.947,592.111,479.152,624.798,495.409z" class="svgShape colorffffff-35"></path><path d="M629.557,497.99c-1.995,0-3.821-0.399-5.443-1.205c-13.661-6.794-17.557-22.937-9.926-41.125
									c8.459-20.164,29.175-36.885,49.217-29.953c7.239,2.503,11.607,7.464,12.632,14.346c1.105,7.422-1.721,17.112-7.956,27.286
									c-5.67,9.253-13.494,17.882-21.466,23.676C640.28,495.62,634.419,497.99,629.557,497.99z M653.929,427.181
									c-15.481,0-30.213,13.709-36.908,29.667c-8.439,20.117-1.163,32.399,8.461,37.186c4.503,2.241,11.366,0.283,19.327-5.503
									c15.083-10.963,30.37-33.383,28.19-48.026c-0.857-5.758-4.422-9.761-10.597-11.896
									C659.582,427.635,656.742,427.181,653.929,427.181z" fill="#000000" class="svgShape color000000-36"></path><path d="M631.13,453.473c-10.967-30.636,23.797-43.882,37.398-34.832s9.621,26.807,9.621,26.807
									c10.755,22.276-15.177,45.13-29.315,45.956C635.561,492.179,624.227,479.848,631.13,453.473z" fill="#000000" class="svgShape color000000-37"></path><path fill="#fff" d="M540.416 381.121c0 0 3.328-11.426 6.437-17.04s-3.074-10.297-6.926-4.398c-3.853 5.9-6.377 10.995-6.377 10.995l.294-27.244c0 0-14.139-6.562-23.578 1.786 0 0-12.273 23.346-5.244 47.906L540.416 381.121zM642.923 453.646c3.117 4.536 1.356 11.438-3.933 15.416-5.289 3.978-12.103 3.525-15.22-1.011-3.117-4.536-1.356-11.439 3.933-15.416C632.992 448.657 639.806 449.11 642.923 453.646z" class="svgShape colorffffff-38"></path><path d="M631.281,473.309c-0.654,0-1.303-0.051-1.942-0.156c-2.852-0.466-5.279-1.969-6.834-4.233
										c-0.48-0.699-0.303-1.655,0.396-2.135c0.7-0.479,1.656-0.302,2.136,0.396c1.092,1.589,2.75,2.606,4.797,2.94
										c2.713,0.443,5.712-0.391,8.233-2.287c4.632-3.484,6.243-9.459,3.59-13.32c-1.092-1.589-2.752-2.606-4.799-2.94
										c-2.712-0.445-5.711,0.391-8.233,2.288c-0.676,0.508-1.641,0.374-2.15-0.304c-0.509-0.678-0.373-1.641,0.305-2.151
										c3.186-2.398,7.044-3.444,10.573-2.864c2.852,0.466,5.28,1.969,6.836,4.232c3.571,5.198,1.653,13.055-4.276,17.514
										C637.303,472.253,634.243,473.309,631.281,473.309z" fill="#000000" class="svgShape color000000-39"></path><path fill="#4633a7" d="M605.604,503.806c0,0,28.307-16.373,41.147-11.606c12.839,4.766,11.083,21.102,11.083,21.102
									L605.604,503.806z" class="svgShape color8abae7-40"></path><polygon fill="#4633a7" points="508.187 408.416 546.206 395.599 540.416 381.121 505.021 393.127" class="svgShape color4666c9-41"></polygon><path fill="#4633a7" d="M508.187,409.951c-0.265,0-0.529-0.069-0.764-0.203c-0.382-0.219-0.651-0.59-0.74-1.021l-3.166-15.288
									c-0.157-0.759,0.276-1.517,1.011-1.766l35.394-12.006c0.77-0.262,1.616,0.126,1.919,0.884l5.791,14.478
									c0.157,0.392,0.145,0.831-0.031,1.214c-0.177,0.383-0.504,0.676-0.904,0.811l-38.019,12.817
									C508.518,409.925,508.352,409.951,508.187,409.951z M506.801,394.145l2.539,12.261l34.838-11.744l-4.647-11.619
									L506.801,394.145z" class="svgShape color4666c9-42"></path><path d="M533.549 372.214c-.005 0-.011 0-.017 0-.848-.009-1.528-.704-1.519-1.552l.294-27.244c.009-.842.695-1.519 1.536-1.519.005 0 .011 0 .017 0 .848.009 1.528.704 1.519 1.552l-.294 27.244C535.076 371.537 534.39 372.214 533.549 372.214zM523.096 366.71c-.059 0-.118-.003-.177-.01-.843-.096-1.448-.858-1.351-1.701l2.686-23.426c.097-.844.88-1.446 1.701-1.351.843.096 1.448.858 1.351 1.701l-2.687 23.427C524.529 366.133 523.865 366.71 523.096 366.71z" fill="#000000" class="svgShape color000000-43"></path><g><path d="M513.706,367.311c-0.083,0-0.167-0.007-0.251-0.02c-0.837-0.138-1.404-0.927-1.267-1.765l3.854-23.433
									c0.138-0.837,0.936-1.408,1.765-1.266c0.837,0.138,1.404,0.927,1.267,1.765l-3.854,23.433
									C515.096,366.777,514.444,367.311,513.706,367.311z" fill="#000000" class="svgShape color000000-45"></path></g><g><path fill="#4633a7" d="M674.742,518.935c-0.099,0-0.198-0.01-0.298-0.029l-69.136-13.594
									c-0.833-0.163-1.375-0.971-1.211-1.803c0.164-0.832,0.973-1.378,1.803-1.21l69.136,13.593
									c0.833,0.164,1.375,0.971,1.211,1.803C676.102,518.427,675.46,518.935,674.742,518.935z" class="svgShape color4666c9-47"></path></g><g><path fill="#4633a7" d="M587.364,572.666c-0.462,0-0.92-0.208-1.222-0.604l-28.453-37.275
									c-0.515-0.674-0.385-1.638,0.289-2.153c0.673-0.514,1.639-0.385,2.153,0.289l28.454,37.275
									c0.515,0.674,0.385,1.638-0.289,2.153C588.017,572.564,587.689,572.666,587.364,572.666z" class="svgShape color4666c9-49"></path></g></g></g></g></switch></svg></g></svg>